<?xml version="1.0" encoding="utf-8"?>
<!-- Generator: Adobe Illustrator 25.2.3, SVG Export Plug-In . SVG Version: 6.00 Build 0)  -->
<svg version="1.1" id="Layer_1" xmlns="http://www.w3.org/2000/svg" xmlns:xlink="http://www.w3.org/1999/xlink" x="0px" y="0px"
	 viewBox="0 0 1001 583" style="enable-background:new 0 0 1001 583;" xml:space="preserve">
<style type="text/css">
	.st0{fill:#475259;}
	.st1{fill:#E0E0E0;}
	.st2{fill:#EBEBEB;}
	.st3{fill:#F5F5F5;}
	.st4{fill:#E8E8E8;}
	.st5{fill:#FAFAFA;}
	.st6{fill:#FFFFFF;}
	.st7{fill:#263238;}
	.st8{fill:#FFBE9D;}
	.st9{fill:#EB996E;}
	.st10{fill:#FF0015;}
	.st11{fill:#BA001E;}
	.st12{opacity:0.3;}
	.st13{opacity:0.3;enable-background:new    ;}
	.st14{fill:#455A64;}
	.st15{fill:url(#SVGID_1_);}
	.st16{fill:url(#SVGID_2_);}
	.st17{fill:url(#SVGID_3_);}
	.st18{fill-rule:evenodd;clip-rule:evenodd;fill:#475259;}
	.st19{fill:#EEEFF0;}
	.st20{fill:none;}
</style>
<path class="st0" d="M530.9,326.4c0.5,2.8,0.5,5.7,0,8.5C530.4,332.1,530.4,329.2,530.9,326.4z"/>
<path class="st0" d="M530.9,297.2c0.5,4.9,0.5,9.8,0,14.6C530.4,306.9,530.4,302,530.9,297.2z"/>
<path class="st0" d="M530.9,267.9c0.5,4.9,0.5,9.8,0,14.6C530.4,277.7,530.4,272.8,530.9,267.9z"/>
<path class="st0" d="M522.4,244.8c2.8-0.4,5.6-0.5,8.5-0.4l0.4,0.4v3.3l-0.1,2.7c0,0.8,0,1.7-0.3,2.5c-0.2-0.8-0.3-1.7-0.3-2.5v-2.7
	v-1.6v-1.7c0.2,0.2-0.4-0.4,0.4,0.4C528.1,245.3,525.3,245.2,522.4,244.8z"/>
<path class="st0" d="M489.5,244.8c2.7-0.4,5.5-0.5,8.2-0.4c2.7-0.1,5.5,0,8.2,0.4c-2.7,0.4-5.5,0.5-8.2,0.4
	C495,245.3,492.3,245.2,489.5,244.8z"/>
<path class="st0" d="M464.6,244.8c1.4-0.4,2.8-0.5,4.2-0.4c1.4-0.1,2.9,0,4.2,0.4c-1.4,0.4-2.8,0.5-4.2,0.4
	C467.4,245.3,466,245.2,464.6,244.8z"/>
<path class="st0" d="M811.6,327.1c-3.9,0.3-7.8,0.3-11.6,0C803.9,326.8,807.8,326.8,811.6,327.1z"/>
<path class="st0" d="M834.9,327.1c-3.9,0.3-7.8,0.3-11.6,0C827.2,326.8,831,326.8,834.9,327.1z"/>
<path class="st0" d="M858.2,327.1c-3.9,0.3-7.8,0.3-11.6,0C850.4,326.8,854.3,326.8,858.2,327.1z"/>
<path class="st1" d="M881.5,327.1c-3.9,0.3-7.8,0.3-11.6,0C873.7,326.8,877.6,326.8,881.5,327.1z"/>
<path class="st1" d="M904.8,327.1c-3.9,0.3-7.8,0.3-11.6,0C897,326.8,900.9,326.8,904.8,327.1z"/>
<path class="st1" d="M927.6,327.6c0,0-0.1-0.2-0.1-0.4l0.1,0.1c-0.9,0.1-2.9,0.2-5.4,0.2c-1.9,0.1-3.9,0-5.8-0.3
	c1.9-0.2,3.9-0.3,5.8-0.3c2.4,0,4.5,0.1,5.4,0.2c0,0,0,0,0,0c0,0,0,0,0,0c0,0,0,0,0,0c0,0,0,0,0,0
	C927.7,327.4,927.6,327.6,927.6,327.6z"/>
<path class="st1" d="M927.6,350.8c-0.2-1.9-0.3-3.9-0.3-5.8c-0.1-1.9,0-3.9,0.3-5.8c0.3,1.9,0.3,3.9,0.3,5.8
	C927.9,347,927.8,348.9,927.6,350.8z"/>
<path class="st0" d="M927.6,374.1c-0.2-1.9-0.3-3.9-0.3-5.8c-0.1-1.9,0-3.9,0.3-5.8c0.3,1.9,0.3,3.9,0.3,5.8
	C927.9,370.2,927.8,372.2,927.6,374.1z"/>
<path class="st0" d="M927.6,397.4c-0.2-1.9-0.3-3.9-0.3-5.8c-0.1-1.9,0-3.9,0.3-5.8c0.3,1.9,0.3,3.9,0.3,5.8
	C927.9,393.5,927.8,395.4,927.6,397.4z"/>
<path class="st0" d="M927.6,420.6c-0.2-1.9-0.3-3.9-0.3-5.8c-0.1-1.9,0-3.9,0.3-5.8c0.3,1.9,0.3,3.9,0.3,5.8
	C927.9,416.8,927.8,418.7,927.6,420.6z"/>
<path class="st0" d="M927.6,443.9c-0.2-1.9-0.3-3.9-0.3-5.8c-0.1-1.9,0-3.9,0.3-5.8c0.3,1.9,0.3,3.9,0.3,5.8
	C927.9,440,927.8,442,927.6,443.9z"/>
<path class="st0" d="M916.5,456c1.9-0.3,3.9-0.3,5.8-0.3c2.4,0,4.4,0.1,5.3,0.1l-0.1,0.1c0-0.3,0.1-0.5,0.1-0.5s0.1,0.2,0.1,0.5
	c0,0,0,0,0,0.1c0,0,0,0-0.1,0c-0.9,0.1-2.9,0.2-5.3,0.2C920.3,456.4,918.4,456.3,916.5,456z"/>
<path class="st0" d="M893.2,456c3.9-0.3,7.8-0.3,11.6,0C900.9,456.4,897.1,456.4,893.2,456z"/>
<path class="st2" d="M868.6,301.7L871,340c0,0.7,0.3,1.3,0.8,1.7c0.5,0.4,1.1,0.7,1.8,0.7h68.9c0.7,0,1.3-0.3,1.8-0.8
	c0.5-0.5,0.8-1.1,0.8-1.8V310c0-0.7-0.3-1.3-0.8-1.8c-0.5-0.5-1.1-0.8-1.8-0.8l-42.4,0.3c-0.7,0-1.3-0.3-1.8-0.7l-7.4-7.2
	c-0.5-0.5-1.1-0.7-1.8-0.7h-17.9c-0.4,0-0.7,0.1-1,0.2c-0.3,0.1-0.6,0.3-0.9,0.6c-0.2,0.3-0.4,0.6-0.5,0.9
	C868.7,301,868.6,301.4,868.6,301.7z"/>
<path class="st3" d="M945,302.9h-75.2v44.9H945V302.9z"/>
<path class="st2" d="M863.8,307l5.7,46.8c0,0.4,0.2,0.8,0.5,1c0.3,0.3,0.7,0.4,1.1,0.4h73.3c0.4,0,0.8-0.2,1.1-0.4
	c0.3-0.3,0.5-0.7,0.5-1.1l3.7-46.9c0-0.2,0-0.5-0.1-0.7c-0.1-0.2-0.2-0.4-0.3-0.6c-0.2-0.2-0.3-0.3-0.6-0.4
	c-0.2-0.1-0.4-0.1-0.7-0.1h-82.8c-0.2,0-0.5,0-0.7,0.1c-0.2,0.1-0.4,0.2-0.6,0.4c-0.2,0.2-0.3,0.4-0.3,0.6
	C863.8,306.5,863.8,306.8,863.8,307z"/>
<path class="st3" d="M613.2,278.7c3.5-1.5,6.5-4.1,8.5-7.3c2.1-3.2,3.2-7,3.1-10.8c0-10.8-8.1-19.6-18.3-19.6
	c-10.1-0.1-18.4,8.7-18.4,19.5c-0.1,3.9,1,7.6,3.1,10.9c2.1,3.2,5.1,5.8,8.6,7.3c-28.3,4.2-26.9,34.9-26.9,34.9l66.7,0.3
	C639.7,313.9,641.2,282.9,613.2,278.7z"/>
<path class="st0" d="M128.5,436.7c-0.3-2.1-0.4-4.2-0.3-6.4c-0.1-2.1,0-4.2,0.3-6.4c0.3,2.1,0.4,4.2,0.3,6.4
	C128.9,432.5,128.8,434.6,128.5,436.7z"/>
<path class="st0" d="M128.5,462.1c-0.4-4.2-0.4-8.5,0-12.7C128.9,453.6,128.9,457.9,128.5,462.1z"/>
<path class="st0" d="M128.5,487.5c-0.4-4.2-0.4-8.5,0-12.7C128.9,479,128.9,483.3,128.5,487.5z"/>
<path class="st0" d="M128.5,512.9c-0.4-4.2-0.4-8.5,0-12.7C128.9,504.5,128.9,508.7,128.5,512.9z"/>
<path d="M128.5,538.3c-0.4-4.2-0.4-8.5,0-12.7C128.9,529.9,128.9,534.1,128.5,538.3z"/>
<path d="M138.7,553.5c-2.1,0.3-4.2,0.4-6.4,0.3c-1.5,0-2.8,0-3.9-0.1c0,0-0.1,0-0.1,0c0,0,0,0-0.1,0c0,0,0,0,0-0.1c0,0,0-0.1,0-0.1
	c0-0.8,0-1.7,0.2-2.5c0.2,0.8,0.3,1.6,0.2,2.5l-0.2-0.2c1.1,0,2.4-0.1,3.9-0.1C134.5,553.2,136.6,553.3,138.7,553.5z"/>
<path d="M164.2,553.5c-2.1,0.3-4.2,0.4-6.4,0.3c-2.1,0.1-4.3,0-6.4-0.3c2.1-0.3,4.2-0.4,6.4-0.3
	C159.9,553.2,162.1,553.3,164.2,553.5z"/>
<path class="st0" d="M189.6,553.5c-2.1,0.3-4.2,0.4-6.4,0.3c-2.1,0.1-4.3,0-6.4-0.3c2.1-0.3,4.2-0.4,6.4-0.3
	C185.4,553.2,187.5,553.3,189.6,553.5z"/>
<path class="st0" d="M210.2,553.5c-1.3,0.3-2.6,0.4-3.9,0.3c-1.3,0.1-2.6,0-3.9-0.3c1.3-0.3,2.6-0.4,3.9-0.3
	C207.6,553.2,208.9,553.3,210.2,553.5z"/>
<path class="st4" d="M79.9,522l2.4,38.6c0,0.7,0.3,1.3,0.8,1.7c0.5,0.5,1.1,0.7,1.8,0.7h69.5c0.7,0,1.4-0.3,1.8-0.8
	c0.5-0.5,0.8-1.2,0.8-1.8v-30c0-0.3-0.1-0.7-0.2-1c-0.1-0.3-0.3-0.6-0.6-0.8s-0.5-0.4-0.9-0.6c-0.3-0.1-0.7-0.2-1-0.2l-42.7,0.3
	c-0.7,0-1.4-0.3-1.9-0.8l-7.4-7.3c-0.2-0.2-0.5-0.4-0.8-0.6c-0.3-0.1-0.7-0.2-1-0.2h-18c-0.4,0-0.7,0.1-1,0.2
	c-0.3,0.1-0.6,0.3-0.9,0.6c-0.2,0.3-0.4,0.6-0.6,0.9S79.9,521.6,79.9,522z"/>
<path class="st5" d="M157,523.2H81.1v45.3H157V523.2z"/>
<path class="st4" d="M75,527.2l5.8,47.3c0.1,0.4,0.2,0.8,0.6,1s0.7,0.4,1.1,0.4h74c0.4,0,0.8-0.2,1.1-0.4c0.3-0.3,0.5-0.7,0.5-1.1
	l3.7-47.3c0-0.2,0-0.5-0.1-0.7c-0.1-0.2-0.2-0.4-0.4-0.6c-0.2-0.2-0.3-0.3-0.6-0.4c-0.2-0.1-0.4-0.1-0.7-0.1H76.7
	c-0.2,0-0.5,0-0.7,0.1c-0.2,0.1-0.4,0.2-0.6,0.4c-0.2,0.2-0.3,0.4-0.3,0.6C75,526.8,75,527,75,527.2z"/>
<path class="st6" d="M859.5,346.4H537.7v235.1h321.8V346.4z"/>
<path class="st7" d="M859.5,581.4c0-2.5-0.1-92.6-0.3-235.1l0.3,0.3H537.8l0.4-0.4c0,84.3,0,164.3,0,235.1l-0.3-0.3L859.5,581.4
	l-321.7,0.3h-0.3v-0.3c0-70.8,0-150.7,0-235.1V346h0.4h321.7h0.3v0.3C859.6,488.8,859.5,579,859.5,581.4z"/>
<path class="st1" d="M860.6,380.6c0,0.2-71.9,0.4-160.5,0.4s-160.5-0.2-160.5-0.4s71.9-0.4,160.5-0.4S860.6,380.4,860.6,380.6z"/>
<path class="st1" d="M558.4,362.7c0,1-0.3,1.9-0.8,2.7c-0.5,0.8-1.3,1.4-2.2,1.8c-0.9,0.4-1.9,0.5-2.8,0.3c-0.9-0.2-1.8-0.6-2.5-1.3
	c-0.7-0.7-1.1-1.5-1.3-2.5c-0.2-0.9-0.1-1.9,0.3-2.8c0.4-0.9,1-1.6,1.8-2.2c0.8-0.5,1.7-0.8,2.7-0.8c1.3,0,2.5,0.5,3.4,1.4
	C557.9,360.2,558.4,361.5,558.4,362.7z"/>
<path class="st1" d="M573,362.7c0,1-0.3,1.9-0.8,2.7c-0.5,0.8-1.3,1.4-2.2,1.8c-0.9,0.4-1.9,0.5-2.8,0.3c-0.9-0.2-1.8-0.7-2.5-1.3
	c-0.7-0.7-1.1-1.5-1.3-2.5c-0.2-0.9-0.1-1.9,0.3-2.8c0.4-0.9,1-1.6,1.8-2.2s1.7-0.8,2.7-0.8c1.3,0,2.5,0.5,3.4,1.4
	C572.5,360.2,573,361.5,573,362.7z"/>
<path class="st1" d="M587.6,362.7c0,1-0.3,1.9-0.8,2.7c-0.5,0.8-1.3,1.4-2.2,1.8c-0.9,0.4-1.9,0.5-2.8,0.3c-0.9-0.2-1.8-0.7-2.5-1.3
	c-0.7-0.7-1.1-1.5-1.3-2.5c-0.2-0.9-0.1-1.9,0.3-2.8c0.4-0.9,1-1.6,1.8-2.2c0.8-0.5,1.7-0.8,2.7-0.8c1.3,0,2.5,0.5,3.4,1.4
	C587.1,360.2,587.6,361.5,587.6,362.7z"/>
<path class="st8" d="M558.7,439.4l2-1.3c0.9-0.6,1.9-0.9,2.9-1.1c1-0.2,2.1-0.1,3.1,0.2c1,0.3,2,0.7,2.8,1.4c0.8,0.6,1.5,1.5,2,2.4
	c3.3,5.9,7.3,14.2,7.3,14.2l-8.6,13.6l-2.8,0.1c-3.1,2-10.4-2-15.3-5c-4.9-3-2.5-6-2.5-6c-3.1-4.2,1.2-6,1.2-6
	c-0.4-0.5-0.6-1.1-0.7-1.7s-0.1-1.2,0-1.8c0.1-0.6,0.4-1.2,0.7-1.7c0.3-0.5,0.8-0.9,1.3-1.3"/>
<path class="st6" d="M554.4,396.5l-62,11.9l16.6,86.7l62-11.9L554.4,396.5z"/>
<path class="st7" d="M509,495.2l-0.1-0.4c-0.1-0.3-0.2-0.7-0.3-1.2c-0.2-1.1-0.5-2.7-0.9-4.7c-0.8-4.1-2-10.1-3.5-17.7
	c-3-15.3-7.2-37-12.2-62.7l-0.1-0.3h0.3l62-11.9h0.4v0.4c6.2,32.5,11.9,62.5,16.6,86.8v0.3h-0.3l-45.2,8.5l-12.3,2.2l-3.3,0.6
	C509.4,495.1,509,495.1,509,495.2l1.1-0.3l3.3-0.7l12.5-2.5l45-8.7l-0.2,0.4c-4.7-24.2-10.4-54.3-16.7-86.7l0.4,0.3l-62,11.8
	l0.3-0.4c4.8,25.6,8.9,47.2,11.8,62.5l3.3,17.8c0.4,2.1,0.7,3.6,0.9,4.8c0.1,0.5,0.2,0.9,0.2,1.2C509,494.8,509,495,509,495.2z"/>
<path class="st7" d="M502.7,428.3c0-0.2,10.2-2.3,22.8-4.7c12.7-2.4,22.9-4.2,23-4c0,0.2-10.1,2.3-22.9,4.7
	C513,426.7,502.8,428.5,502.7,428.3z"/>
<path class="st7" d="M503.9,434.4c0-0.2,10.2-2.3,22.8-4.7c12.7-2.4,22.9-4.2,23-4c0,0.2-10.2,2.3-22.8,4.8
	C514.3,432.8,503.9,434.6,503.9,434.4z"/>
<path class="st7" d="M505.1,440.5c0-0.2,10.2-2.3,22.8-4.7c12.7-2.4,23-4.2,23-4c0,0.2-10.2,2.3-22.8,4.7
	C515.4,438.9,505.1,440.7,505.1,440.5z"/>
<path class="st7" d="M506.3,446.7c0-0.2,10.2-2.3,22.8-4.7c12.7-2.4,23-4.2,23-4c0,0.2-10.2,2.3-22.8,4.8
	C516.6,445.1,506.3,446.9,506.3,446.7z"/>
<path class="st7" d="M507.4,452.8c0-0.2,10.2-2.3,22.8-4.7c12.7-2.4,23-4.2,23-4c0,0.2-10.2,2.3-22.8,4.7
	C517.8,451.2,507.5,453,507.4,452.8z"/>
<path class="st7" d="M508.6,458.9c0-0.2,10.2-2.3,22.8-4.7c12.7-2.4,23-4.2,23-4c0,0.2-10.2,2.3-22.8,4.8S508.7,459.1,508.6,458.9z"
	/>
<path class="st7" d="M509.8,465c0-0.2,10.2-2.3,22.8-4.7c12.7-2.4,23-4.2,23-4c0,0.2-10.1,2.3-22.8,4.7
	C520.1,463.4,509.8,465.2,509.8,465z"/>
<path class="st7" d="M511,471.2c0-0.2,10.2-2.3,22.8-4.7c12.7-2.4,23-4.2,23-4c0,0.2-10.2,2.3-22.9,4.8
	C521.3,469.6,511,471.4,511,471.2z"/>
<path class="st7" d="M512.1,477.3c0-0.2,10.2-2.3,22.9-4.7c12.7-2.4,23-4.2,23-4c0,0.2-10.2,2.3-22.9,4.7
	C522.5,475.7,512.2,477.5,512.1,477.3z"/>
<path class="st7" d="M545.8,401.4c0.2,0.5,0.4,1,0.5,1.5l0.9,4.2c0.1,0.5,0.2,0.9,0.3,1.4c0.1,0.4,0.1,0.9,0,1.4
	c-0.1,0.4-0.3,0.9-0.5,1.3c-0.3,0.4-0.6,0.7-1,1c-0.4,0.3-0.8,0.4-1.3,0.5s-0.9,0.1-1.4,0c-0.4-0.1-0.9-0.3-1.3-0.5
	c-0.4-0.3-0.7-0.6-1-1c-0.3-0.4-0.4-0.8-0.5-1.3l-0.2-1c-0.1-0.7-0.3-1.4-0.4-2c-0.3-1.4-0.5-2.7-0.8-4c-0.1-0.6-0.2-1.3-0.4-1.9
	c-0.2-0.6-0.2-1.3-0.2-2c0-0.6,0.2-1.2,0.5-1.8c0.3-0.5,0.7-1,1.2-1.4c0.8-0.7,1.9-1,3-1c0.8,0,1.5,0.2,2.2,0.6
	c0.7,0.4,1.2,1,1.6,1.6c0.2,0.4,0.3,0.7,0.4,1.1c0,0.3,0,0.4,0,0.4c-0.2-0.5-0.4-1-0.7-1.4c-0.4-0.6-0.9-1-1.5-1.4
	c-0.6-0.3-1.3-0.5-2-0.5c-0.9,0-1.9,0.4-2.6,1c-0.4,0.4-0.8,0.8-1,1.3c-0.2,0.5-0.4,1-0.4,1.6c0,0.6,0.1,1.2,0.2,1.8
	c0.1,0.6,0.2,1.3,0.4,1.9c0.3,1.3,0.5,2.6,0.8,4c0.1,0.7,0.3,1.4,0.4,2l0.2,1c0.1,0.3,0.2,0.6,0.3,0.8c0.3,0.5,0.7,0.9,1.2,1.1
	c0.5,0.3,1.1,0.3,1.6,0.3c0.5-0.1,1-0.3,1.4-0.6s0.7-0.8,0.9-1.3c0.2-0.5,0.2-0.9,0.1-1.4c-0.1-0.5-0.2-1-0.2-1.4
	c-0.3-1.7-0.5-3.1-0.7-4.2C545.8,402.5,545.8,401.9,545.8,401.4z"/>
<path class="st8" d="M564.3,437c-0.5,0-18.8,2.8-18.8,2.8c-0.3,1.7,0.7,4.1,5,4.2c4.1,0.1,7.8-0.3,7.8-0.3s4.5,9.5,9,10.5
	c4.5,1.1,2.3-9.1,2.3-9.1L564.3,437z"/>
<path class="st7" d="M774.8,377.2c1.6-3.7,3.2-7.5,3.4-11.6c0.2-4.1-1.5-8.5-5-10.3c-3.2-1.7-7.2-0.9-10.6-2.1
	c-4.2-1.5-6.9-5.8-8.8-10c-1.9-4.2,0.7-5.7-2.4-9c-4.2-4.2-7-4.9-12.3-2.3c-3.8-2.7-17.2-7.6-21-7.8c-5.7-0.2-12.2,0.3-16.2,4.4
	c-3.1,3.2-5,7.2-8.8,9.5c-5.2,3.1-11.9,0.5-17.9,0.7c-0.6-0.1-1.3,0.1-1.8,0.3c-0.6,0.3-1,0.7-1.4,1.2c-0.1,0.5-0.2,1.1-0.1,1.6
	c0.1,0.5,0.3,1,0.6,1.5l4.7,9.8c-1.3,0.6-2.7,0.9-4.1,0.8c-1.4,0-2.8-0.4-4-1c0.3,6.5,2.9,12.6,7.2,17.4c-0.3-0.1-0.6-0.2-0.9-0.2
	c-0.3,0-0.7,0-1,0.2c-0.3,0.1-0.6,0.3-0.8,0.5c-0.2,0.2-0.4,0.5-0.5,0.8c-0.4,1.3-0.4,2.6,0,3.9c1.1,3.9,3,7.6,5.6,10.7
	c2.6,3.1,5.8,5.7,9.5,7.5c3.7,1.8,7.7,2.7,11.7,2.8c4.1,0.1,8.1-0.7,11.9-2.3l33.5,2.5c0.5,1.3,1.2,2.5,2.2,3.4c1,0.9,2.2,1.6,3.6,2
	c3.7-2.8,4.4-4.3,4.4-4.3c2.3,1.7,0.5,0.8,2.3,1.7c4.2,2,10.3-0.4,11.3-5c0.2-1.9,1-3.7,2.2-5.1c1.5-1.2,3.2-2.1,4.9-2.7
	c2.7-1.4,4.8-3.6,6.1-6.3c-1.4,0-2.7-0.3-4-0.8C776.8,379,775.7,378.2,774.8,377.2z"/>
<path class="st8" d="M751,362.8l0.9,69.2c0.1,11.8-2,29.1-20.7,28.5c-16.1-1.8-20.4-17-20.5-28c0-5.2-0.1-9.6-0.2-10.1
	c0,0-17.6-1.4-19.1-18.9c-0.7-8.4-0.8-25.9-0.7-41.7c0.1-8.2,3.2-16,8.8-22c5.6-6,13.3-9.6,21.4-10.2l1.7-0.1
	C740.9,329.3,751.3,344.6,751,362.8z"/>
<path class="st9" d="M710.6,422.4c8.1-0.6,15.8-3.5,22.2-8.4c0,0-4.6,13.1-22.1,12.8L710.6,422.4z"/>
<path class="st7" d="M720.5,369c0.3,0.4,2.4-1.3,5.3-1.4c2.9-0.1,5.1,1.4,5.4,1s-0.2-0.8-1.2-1.4c-1.3-0.9-2.8-1.3-4.3-1.2
	c-1.5,0-3,0.6-4.2,1.5C720.7,368.2,720.4,368.9,720.5,369z"/>
<path class="st7" d="M720,375.5c0,0.6,0.3,1.2,0.8,1.6c0.5,0.4,1.1,0.6,1.7,0.6c0.3,0,0.6-0.1,0.9-0.2c0.3-0.1,0.5-0.3,0.7-0.5
	c0.2-0.2,0.4-0.5,0.5-0.7c0.1-0.3,0.2-0.6,0.2-0.9c0-0.3-0.1-0.6-0.2-0.9c-0.1-0.3-0.3-0.5-0.6-0.7c-0.2-0.2-0.5-0.4-0.8-0.5
	c-0.3-0.1-0.6-0.1-0.9-0.1c-0.3,0-0.6,0.1-0.9,0.2c-0.3,0.1-0.5,0.3-0.7,0.5c-0.2,0.2-0.4,0.5-0.5,0.7
	C720.1,374.9,720,375.2,720,375.5z"/>
<path class="st7" d="M713.2,389.3c-1.4-0.3-2.9-0.5-4.4-0.5c-0.7,0-1.4-0.1-1.5-0.6c-0.1-0.7,0-1.4,0.3-2.1l1.6-5.4
	c2.3-7.6,3.9-13.9,3.5-13.9c-0.3-0.1-2.4,6-4.7,13.6c-0.5,1.9-1.1,3.7-1.6,5.4c-0.4,0.9-0.4,1.8-0.2,2.7c0.1,0.2,0.3,0.4,0.5,0.6
	c0.2,0.2,0.4,0.3,0.7,0.3c0.4,0.1,0.8,0.1,1.2,0.1C710.3,389.7,711.8,389.6,713.2,389.3z"/>
<path class="st7" d="M721.8,358c0.3,0.7,2.6,0.2,5.4,0.3c2.8,0.1,5.1,0.8,5.4,0.1c0.1-0.3-0.3-0.9-1.2-1.4c-1.3-0.7-2.7-1.1-4.1-1.2
	c-1.4-0.1-2.9,0.2-4.2,0.8C722.1,357.2,721.7,357.7,721.8,358z"/>
<path class="st7" d="M694.1,363.5c0.3,0.5,2.6,0,5.3-0.1c2.8-0.1,5,0.3,5.3-0.3c0.1-0.3-0.3-0.7-1.3-1.2c-1.3-0.5-2.7-0.7-4.1-0.7
	c-1.4,0-2.8,0.4-4.1,1C694.4,362.7,694,363.2,694.1,363.5z"/>
<path class="st8" d="M750.5,375.8c0.3-0.1,11.7-4.4,12.2,7.5c0.5,11.9-11.6,10-11.7,9.6C751.1,392.7,750.5,375.8,750.5,375.8z"/>
<path class="st9" d="M754.6,388.4c0,0,0.2,0.1,0.6,0.3c0.5,0.2,1.1,0.2,1.6,0c1.2-0.5,2.2-2.6,2.2-4.7c0-1-0.3-2-0.7-3
	c-0.1-0.4-0.3-0.7-0.6-1c-0.3-0.3-0.6-0.5-1-0.6c-0.2-0.1-0.5,0-0.7,0.1c-0.2,0.1-0.4,0.3-0.5,0.5c-0.2,0.3-0.1,0.6-0.1,0.6
	c-0.1,0-0.3-0.2-0.2-0.7c0.1-0.3,0.2-0.6,0.5-0.8c0.2-0.1,0.3-0.2,0.5-0.3c0.2-0.1,0.4-0.1,0.6-0.1c0.5,0.1,1,0.3,1.4,0.6
	c0.4,0.3,0.7,0.7,0.9,1.2c0.6,1,0.9,2.2,0.9,3.3c0,2.4-1.1,4.7-2.8,5.3c-0.3,0.1-0.7,0.1-1,0.1c-0.3,0-0.6-0.2-0.9-0.3
	C754.6,388.6,754.6,388.4,754.6,388.4z"/>
<path class="st7" d="M716.1,397.6c-0.1-0.3,2.2-1,3.9-3.2c0.7-1,1.2-2,1.7-3.1c0.4-0.9,0.6-1.4,0.7-1.4c0.1,0,0.1,0.6-0.1,1.6
	c-0.3,1.3-0.8,2.5-1.5,3.5c-0.8,1-1.8,1.8-3,2.3C716.7,397.7,716.1,397.7,716.1,397.6z"/>
<path class="st7" d="M766.5,356.5c-2.5-4.2-3.1-9.2-4.4-13.9c-1.4-4.7-4-9.6-8.6-11.2h-0.1c-4.1-1.7-9.2-1.7-12.6,1.2
	c-0.8-6.2-6.3-11.1-12.4-12.7c-6.1-1.6-15.8-0.6-21.6,1.7c-4.5,1.8-8.8,5.5-14.1,11c-2.2,2.3-4.3,4.8-6.1,7.4l-5.2,16.3
	c-0.6,0.4-1.1,0.9-1.5,1.5c-0.4,0.6-0.6,1.3-0.5,2.1c0.1,0.7,0.4,1.4,1,1.9c0.5,0.5,1.3,0.8,2,0.8c0.7,0,1.5-0.2,2-0.7
	c0.5,0.9,0.9,1.9,1.4,2.8l0.1,0.2c0.3,0.6,0.6,1.2,0.9,1.7l4.1,18c0.3-4.9-0.1-22,0.2-26.8c3.7-0.1,7.3-1,10.7-2.5
	c3.4-1.5,6.4-3.8,8.8-6.5c2.7-3,4.8-6.7,8.4-8.5c4.6-2.3,10.1-0.6,15,1.1l-0.2-0.2c2.5,1.2,4.8,2.8,6.8,4.9
	c-1.1,9.7-0.1,19.5,2.9,28.8c0.5,1.4,1.7,4.2,3.1,4.8c2.7,1,3.4-1.7,5-3.2c1.4-1,3.2-1.4,4.9-1.2c1.3-4.1,2.4-8.2,3.3-12.4
	c1.6,0.5,3.3,0.6,5,0.3c-0.5-1.2-1-2.5-1.6-3.7c0.6,0.5,1.4,0.8,2.1,1c0.4,0.1,0.8,0,1.2-0.1c0.4-0.2,0.7-0.4,0.9-0.8
	C767.6,358.4,767,357.4,766.5,356.5z"/>
<path class="st10" d="M735.2,334.6c0.6,0.5,1.2,1,1.7,1.6c1.4,1.7,2.3,3.7,2.7,5.8c0.3,1.5,0.4,2.9,0.4,4.4c0,1.6-0.1,3.3-0.2,5.1
	c-0.2,1.9-0.2,3.8-0.1,5.7c0.1,1,0.2,2,0.4,3c0.2,1.1,0.6,2.1,1.2,2.9c0.3,0.3,0.7,0.6,1.1,0.7c0.4,0.1,0.9,0.2,1.3,0.1
	c0.9-0.2,1.6-0.6,2.2-1.2c0.9-1.3,1.5-2.8,1.7-4.4h-0.4c0.5,1.3,1.2,2.5,2.1,3.7c0.9,1,2.1,1.7,3.4,1.8c0.6,0.1,1.2,0,1.8-0.3
	c0.5-0.3,0.9-0.7,1.2-1.2c0.3-0.5,0.4-1,0.4-1.5c0-0.5-0.2-1-0.6-1.4l-0.2,0.2c1,1.2,2.3,2.2,3.7,2.8c0.4,0.2,0.8,0.4,1.2,0.6
	c0.1,0.1,0.3,0.1,0.4,0.1c-0.1-0.1-0.3-0.1-0.4-0.2c-0.3-0.1-0.6-0.3-1.1-0.5c-1.4-0.7-2.6-1.7-3.6-2.8l-0.2,0.2
	c0.3,0.4,0.4,0.8,0.5,1.3c0,0.5-0.1,0.9-0.4,1.3c-0.3,0.5-0.6,0.8-1.1,1.1c-0.5,0.2-1.1,0.3-1.6,0.3c-1.2-0.2-2.4-0.8-3.2-1.8
	c-0.9-1.1-1.5-2.4-2-3.7l-0.3-0.6l-0.1,0.6c-0.2,1.5-0.7,3-1.6,4.2c-0.5,0.6-1.2,1-2,1.1c-0.4,0.1-0.8,0-1.1-0.1
	c-0.4-0.1-0.7-0.3-1-0.6c-0.6-0.8-1-1.7-1.1-2.7c-0.2-1-0.3-2-0.4-3c-0.1-1.9,0-3.8,0.1-5.7c0.1-1.8,0.2-3.5,0.2-5.2
	c0-1.5-0.2-3-0.5-4.5c-0.4-2.2-1.4-4.2-2.8-5.8C736.6,335.5,735.9,335,735.2,334.6z"/>
<path class="st10" d="M681.3,351.5l0.1,0.1l0.4,0.3c0.2,0.2,0.5,0.3,0.7,0.5c0.3,0.2,0.7,0.4,1.1,0.6c2.3,1.1,4.9,1.5,7.5,1.3
	c3.8-0.2,7.5-1.6,10.5-3.9c3.7-2.8,6.8-6.4,9-10.4c1.3-2.1,2.3-4.2,3.4-6.3c1-1.9,2.4-3.7,3.9-5.3c1.4-1.4,3.1-2.5,5-3.1
	c0.9-0.2,1.8-0.3,2.6-0.3c0.8,0,1.6,0.2,2.4,0.5c1.4,0.5,2.6,1.2,3.6,2.2c0.8,0.7,1.5,1.6,2,2.6c0.4,0.8,0.7,1.7,0.9,2.6
	c0,0,0-0.1,0-0.2s0-0.3,0-0.5c-0.1-0.7-0.4-1.3-0.7-2c-0.5-1-1.2-1.9-2.1-2.6c-1.1-1-2.3-1.8-3.7-2.3c-0.8-0.3-1.6-0.4-2.5-0.5
	c-0.9,0-1.9,0.1-2.8,0.3c-2,0.6-3.7,1.7-5.2,3.1c-1.6,1.6-2.9,3.4-4,5.4c-1.1,2-2.2,4.2-3.4,6.3c-2.2,4-5.3,7.5-8.9,10.3
	c-3,2.3-6.6,3.6-10.3,3.9c-2.5,0.2-5.1-0.2-7.4-1.2C682.9,352.4,682,352,681.3,351.5z"/>
<path class="st10" d="M679.7,343.9c0.2,0.2,0.4,0.3,0.6,0.4c0.6,0.4,1.2,0.7,1.9,0.9c1,0.4,1.9,0.7,2.9,1c2.5,0.6,5,0.7,7.5,0.2
	c1-0.2,2-0.4,3-0.8c0.7-0.2,1.3-0.5,1.9-0.8c0.2-0.1,0.4-0.2,0.7-0.4c0,0-1,0.4-2.6,0.9c-1,0.3-2,0.5-3,0.7
	c-1.2,0.2-2.5,0.2-3.7,0.2c-1.2-0.1-2.5-0.2-3.7-0.5c-1-0.2-2-0.5-2.9-0.9C680.6,344.3,679.7,343.8,679.7,343.9z"/>
<path class="st7" d="M694,370.1c0.4,0.4,2.4-1.3,5.3-1.4c2.9-0.1,5.1,1.4,5.4,1c0.3-0.4-0.2-0.8-1.2-1.4c-1.3-0.9-2.8-1.3-4.3-1.2
	c-1.5,0-3,0.6-4.2,1.5C694,369.3,693.8,370,694,370.1z"/>
<path class="st7" d="M695.6,375.9c0,0.6,0.3,1.2,0.8,1.6c0.5,0.4,1.1,0.6,1.7,0.6c0.3,0,0.6-0.1,0.9-0.2c0.3-0.1,0.5-0.3,0.7-0.5
	c0.2-0.2,0.4-0.5,0.5-0.7c0.1-0.3,0.2-0.6,0.2-0.9c0-0.6-0.3-1.2-0.8-1.6c-0.5-0.4-1.1-0.6-1.7-0.6c-0.3,0-0.6,0.1-0.9,0.2
	c-0.3,0.1-0.5,0.3-0.7,0.5c-0.2,0.2-0.4,0.5-0.5,0.7C695.6,375.3,695.6,375.6,695.6,375.9z"/>
<path class="st10" d="M682.3,440.6l-63.1,41.2l-38.4-29.9l-12,18.9c0,0,22.4,25.9,30.7,34.7c8.3,8.8,13.8,13.5,20.3,12.6
	c6.5-0.8,61.1-22,61.1-22l8.3-57.8l-3.5,0.8C684.6,439.4,683.4,439.9,682.3,440.6z"/>
<path class="st10" d="M752.7,426.5c-14.1,8.9-28.3,12.2-42.7,6.5l-21.7,5.5l-10.5,18.3c-1.7,2.9-2.4,6.2-2.2,9.5l4.2,70l-12.7,44.5
	l124.9,1.1l-6.2-33l-15.5-118.7L752.7,426.5z"/>
<path class="st10" d="M771.7,483.3l-3.9-53.6c0,0,29.4,2.7,39.1,23.4c8.2,17.5,32.8,68.2,35.2,75.4c7.1,21.1-6,51.9-51.7,50.2
	l-5.2-28.7L771.7,483.3z"/>
<path class="st7" d="M795.3,528c0.2,0.7,0.4,1.4,0.7,2.1c0.5,1.3,1.3,3,2.1,4.9l2.2,4.9c0.3,0.7,0.6,1.4,1,2
	c-0.2-0.7-0.4-1.4-0.7-2.1c-0.5-1.3-1.2-3-2.1-4.9c-0.9-1.9-1.6-3.5-2.2-4.9C796,529.3,795.7,528.6,795.3,528z"/>
<path class="st7" d="M779,485.8c0.1,0,0.2-3.4,0.2-7.6c0-4.2-0.1-7.6-0.2-7.6s-0.2,3.4-0.2,7.6C778.8,482.4,778.9,485.8,779,485.8z"
	/>
<path class="st7" d="M783.3,463c0.1-0.3,0.2-0.6,0.3-0.8c0.1-0.6,0.4-1.4,0.7-2.3c0.8-2.5,1.9-4.9,3.3-7.2c1.3-2.3,2.9-4.4,4.7-6.4
	c0.7-0.7,1.3-1.4,1.7-1.7c0.2-0.2,0.4-0.4,0.6-0.6c-0.3,0.1-0.5,0.3-0.7,0.5c-0.6,0.5-1.2,1.1-1.8,1.7c-3.7,3.8-6.5,8.5-8,13.7
	c-0.2,0.8-0.4,1.6-0.6,2.3C783.4,462.4,783.4,462.7,783.3,463z"/>
<path class="st7" d="M679.6,459.6c0.1,0.6,0.2,1.2,0.2,1.8c0,1.1,0.1,2.8,0,4.8c0,4-0.5,9.6-1,15.7c-0.5,5.2-0.7,10.5-0.6,15.7
	c0,2,0.1,3.6,0.2,4.8c0.1,0.6,0.1,1.2,0,1.8c-0.2-0.6-0.3-1.1-0.3-1.7c-0.2-1.1-0.3-2.7-0.5-4.8c-0.2-5.3-0.1-10.5,0.4-15.8
	c0.5-6.1,1-11.7,1.2-15.7c0.1-2,0.2-3.6,0.2-4.8C679.4,460.8,679.5,460.2,679.6,459.6z"/>
<path class="st7" d="M814,537.8c-0.6,0.4-1.3,0.8-2,1.1c-1.3,0.7-3.2,1.7-5.5,3.1c-2.3,1.4-5,3-8.1,4.6c-1.6,0.8-3.2,1.6-5,2.4
	l-5.5,2.3l-1.7,0.7l0.2-0.4c1.2,7.6,2.2,14.4,2.9,19.3c0.3,2.4,0.6,4.3,0.8,5.8c0.1,0.7,0.2,1.4,0.2,2.1c-0.2-0.7-0.4-1.4-0.5-2.1
	c-0.3-1.5-0.6-3.4-1-5.8c-0.8-4.9-2-11.7-3.2-19.2v-0.3l0.3-0.1l1.7-0.7l5.5-2.2c1.8-0.7,3.4-1.5,5-2.3c3.1-1.6,5.8-3.2,8.1-4.5
	c2.3-1.3,4.2-2.3,5.7-2.9c0.7-0.3,1.2-0.5,1.6-0.7C813.9,537.8,814,537.8,814,537.8z"/>
<path class="st7" d="M820.7,528.6c0,0.1-1.5,0.4-3.8,1.3c-3,1.1-5.7,2.7-8.2,4.7c-2.4,2-4.5,4.4-6.2,7.1c-1.3,2.1-1.8,3.5-2,3.5
	c0-0.4,0.1-0.7,0.3-1c0.3-0.9,0.8-1.8,1.2-2.7c3.2-5.7,8.4-10.1,14.7-12.1c0.9-0.3,1.9-0.5,2.8-0.7
	C819.9,528.6,820.3,528.6,820.7,528.6z"/>
<path class="st11" d="M773.2,581.2l30.7-74c1.4-3.4-0.4-6.1-3.9-6.1h-6.2c-2.5,0-4.2-1.4-4.4-3.5l-0.2-2.7c-0.2-2.2-1.9-3.6-4.4-3.6
	h-29.4c-2.6,0.1-5,1.2-6.8,3l-2.4,2.3c-1.8,1.8-4.2,2.9-6.8,3H702c-1.9,0.1-3.7,0.7-5.3,1.8c-1.6,1.1-2.8,2.6-3.6,4.3l-30.4,75.5
	H773.2z"/>
<g class="st12">
	<path class="st13" d="M773.2,581.2l30.7-74c1.4-3.4-0.4-6.1-3.9-6.1h-6.2c-2.5,0-4.2-1.4-4.4-3.5l-0.2-2.7
		c-0.2-2.2-1.9-3.6-4.4-3.6h-29.4c-2.6,0.1-5,1.2-6.8,3l-2.4,2.3c-1.8,1.8-4.2,2.9-6.8,3H702c-1.9,0.1-3.7,0.7-5.3,1.8
		c-1.6,1.1-2.8,2.6-3.6,4.3l-30.4,75.5H773.2z"/>
</g>
<path class="st1" d="M778.2,556.1l11.6-44.7c0.8-2.9-1.2-5.9-3.9-5.9h-90.7c-0.9,0-1.8,0.4-2.5,1c-0.7,0.6-1.2,1.4-1.4,2.3
	l-16.8,67.3c-0.7,3,0.4,4.7,3.1,4.7h91.3c0.9-0.1,1.8-0.4,2.5-1c0.7-0.6,1.2-1.4,1.3-2.3L778.2,556.1z"/>
<path class="st2" d="M771.9,579.1l4.9-70.4c0-0.6,0-1.2-0.2-1.7c-0.2-0.6-0.5-1.1-0.9-1.5c-0.4-0.4-0.9-0.8-1.4-1
	c-0.5-0.2-1.1-0.4-1.7-0.4h-94v75H771.9z"/>
<path class="st5" d="M772.9,580.8l-11.1-72.6c-0.3-1.2-0.9-2.2-1.8-2.9c-0.9-0.7-2.1-1.1-3.3-1.1h-95.1c-0.9,0-1.7,0.2-2.5,0.6
	c-0.8,0.4-1.4,1-1.9,1.7c-0.5,0.7-0.8,1.5-0.8,2.4c-0.1,0.9,0.1,1.7,0.4,2.5l20.5,66.4L772.9,580.8z"/>
<path class="st11" d="M773.2,581.2l-23.1-68c-0.4-1.4-1.3-2.6-2.4-3.4c-1.2-0.8-2.5-1.3-4-1.3h-98.1c-0.8,0-1.5,0.2-2.1,0.6
	c-0.7,0.4-1.2,0.9-1.6,1.5c-0.4,0.6-0.7,1.3-0.8,2.1c-0.1,0.7,0,1.5,0.2,2.2l21.4,66.4L773.2,581.2z"/>
<g class="st12">
	<path class="st13" d="M725.7,569.8c0,0,3.7,0.2,5.4,0.3c8.2,0.5,16.3-0.9,23.8-4.2c2.3-1,4.7-2.5,5.4-4.9c0.8-2.7-1-5.5-3.1-7.4
		c-2.2-1.8-4.8-3.2-6.6-5.3c-1.9-2.1-2.7-5.6-0.9-7.7l0.5,0.4c1.3,3.3,5,5,8.1,6.9c5.8,3.6,10,9.2,12,15.6c1.1,3.5,1.4,7.6-0.8,10.6
		c-1.7,2-3.9,3.5-6.4,4.2c-7.4,2.8-15.3,2.8-23.3,2.8c-2.5,0-10.2-0.1-10.2-0.1c-2.4-0.7-3.2-1.9-4.7-3.9
		C723.6,575.1,723.9,571.2,725.7,569.8z"/>
</g>
<path class="st8" d="M725.7,569.8l25.6-3.8l9.9-5.7c0.7-0.4,1.2-0.9,1.6-1.5s0.6-1.4,0.7-2.1v-0.2c0-0.9-0.2-1.8-0.7-2.6
	c-0.5-0.8-1.2-1.4-2.1-1.7c-3.2-1.3-8.1-3.1-10.3-6.8c-3.1-5.4,0-6.5,0-6.5l21.3,8.5l15.1,10.3l3.1,17.2l-21.1,6.9
	c0,0-23.5,1.3-30,0.6c-6.5-0.7-6.5-3.7-6.5-3.7c-1.2-0.4-3.6-2.5-3.6-4.5C725.6,571.2,725.7,569.8,725.7,569.8"/>
<path class="st9" d="M758.4,577.2c-0.4,0-0.7,0.1-1.1,0.2c-0.7,0.2-1.6,0.4-2.8,0.6c-3.1,0.6-6.3,1-9.5,1.1c-3.2,0.1-6.4,0-9.6-0.4
	c-1.2-0.1-2.2-0.3-2.8-0.4c-0.4-0.1-0.7-0.1-1.1-0.1c0.3,0.1,0.7,0.2,1,0.3c0.7,0.2,1.6,0.4,2.8,0.5c6.4,0.9,12.9,0.7,19.2-0.7
	c1.2-0.3,2.2-0.5,2.8-0.7C757.8,577.4,758.1,577.3,758.4,577.2z"/>
<path class="st9" d="M756.1,573.2c-0.4,0-0.7,0.1-1.1,0.2c-0.7,0.2-1.7,0.4-2.8,0.6c-3.2,0.6-6.4,1-9.7,1.1
	c-3.2,0.1-6.5-0.1-9.7-0.5c-1.2-0.1-2.2-0.3-2.9-0.4c-0.4-0.1-0.7-0.1-1.1-0.1c0.3,0.1,0.7,0.2,1,0.3c0.7,0.2,1.7,0.4,2.9,0.6
	c3.2,0.5,6.5,0.7,9.8,0.6c3.3-0.1,6.5-0.5,9.7-1.2c1-0.2,1.9-0.5,2.8-0.7C755.4,573.5,755.7,573.4,756.1,573.2z"/>
<path class="st8" d="M344.3,367.3c5.2,2,9.5,5.8,12.2,10.6c4.6,8.1,3.4,12.1,2.2,16.9c-1.2,4.8-3.3,14.3-3.4,13.7
	C355.1,407.9,344.3,367.3,344.3,367.3z"/>
<path class="st6" d="M480.6,268.6H151.3V513h329.3V268.6z"/>
<path class="st7" d="M480.6,513c0-2.5-0.1-96.5-0.3-244.4l0.3,0.3l-329.2,0.1l0.4-0.4c0,87.8,0,171,0,244.4l-0.3-0.3L480.6,513
	l-329.2,0.3H151V513c0-73.5,0-156.6,0-244.4v-0.3h0.4h329.2h0.3v0.3C480.7,416.5,480.6,510.5,480.6,513z"/>
<path class="st1" d="M480.1,302.7c0,0.2-73,0.4-163,0.4s-163-0.1-163-0.4c0-0.3,73-0.4,163-0.4S480.1,302.6,480.1,302.7z"/>
<path class="st1" d="M172.9,284.9c0,1-0.3,1.9-0.8,2.7c-0.5,0.8-1.3,1.4-2.2,1.8c-0.9,0.4-1.9,0.5-2.8,0.3c-0.9-0.2-1.8-0.6-2.5-1.3
	c-0.7-0.7-1.1-1.5-1.3-2.5c-0.2-0.9-0.1-1.9,0.3-2.8c0.4-0.9,1-1.6,1.8-2.2c0.8-0.5,1.7-0.8,2.7-0.8c1.3,0,2.5,0.5,3.4,1.4
	C172.4,282.4,172.9,283.6,172.9,284.9z"/>
<path class="st1" d="M187.5,284.9c0,1-0.3,1.9-0.8,2.7s-1.3,1.4-2.2,1.8c-0.9,0.4-1.9,0.5-2.8,0.3c-0.9-0.2-1.8-0.6-2.5-1.3
	c-0.7-0.7-1.1-1.5-1.3-2.5c-0.2-0.9-0.1-1.9,0.3-2.8c0.4-0.9,1-1.6,1.8-2.2c0.8-0.5,1.7-0.8,2.7-0.8c1.3,0,2.5,0.5,3.4,1.4
	C186.9,282.4,187.5,283.6,187.5,284.9z"/>
<path class="st1" d="M202,284.9c0,1-0.3,1.9-0.8,2.7c-0.5,0.8-1.3,1.4-2.2,1.8c-0.9,0.4-1.9,0.5-2.8,0.3c-0.9-0.2-1.8-0.6-2.5-1.3
	c-0.7-0.7-1.1-1.5-1.3-2.5c-0.2-0.9-0.1-1.9,0.3-2.8c0.4-0.9,1-1.6,1.8-2.2c0.8-0.5,1.7-0.8,2.7-0.8c1.3,0,2.5,0.5,3.4,1.4
	C201.5,282.4,202,283.6,202,284.9z"/>
<path class="st7" d="M333.5,263.2c-1.1-4-3.3-7.9-6.8-9.9c-1.7-1-3.6-1.5-5.3-2.5c-2-1.3-3.9-2.7-5.7-4.2c-2.4-1.7-5.1-2.8-8-3.3
	c-2.9-0.5-5.8-0.4-8.7,0.3c-2.8,0.7-5.5,2-7.8,3.9c-2.3,1.8-4.1,4.1-5.5,6.7c-4-3.1-11-1.8-15.7,0c-4.8,1.8-8.7,7.4-9.9,12.3
	l22.3,6.6c4.3,5,9.5,9.2,15.2,12.5c5.8,3.3,12.5,4.7,19.1,3.9c3.3-0.4,6.4-1.6,9.1-3.5s5-4.3,6.6-7.2
	C334.7,273.8,335.1,268.3,333.5,263.2z"/>
<path class="st7" d="M349.4,336.8c2.8-2.1,4.6-5.2,5.1-8.6c0.5-3.4-0.3-6.9-2.3-9.8c-1.3-1.6-3-3.1-3.3-5.1
	c-0.1-1.3,0.1-2.5,0.5-3.7c0.9-4.1,0.7-8.4-0.7-12.4c-1.4-4-4-7.4-7.3-10c-0.1-4.6-2.7-14.2-8.5-17.9l-26.4,3.7
	c1.2,27.7,1.1,55.5-0.2,83.2c-0.2,4.2-0.4,8.8,2,12.4c3.3,5.1,10.2,6.1,16.2,6.3c5.8,0.4,11.6-0.3,17.1-2c5.4-1.9,10.5-5.7,12.7-11
	C357.8,353.8,354.2,344.3,349.4,336.8z"/>
<path class="st8" d="M269.1,280.8l-0.8-5.9l34.7-10.8c10.8-2.4,23.9,7.2,25.9,18.1c2.2,12.1,4.3,27,3.9,36.3
	c-0.8,18.7-14.6,22.6-14.6,22.6l1.4,11.1c0.7,5.4-0.8,10.8-4.1,15.1c-3.3,4.3-8.2,7.1-13.6,7.8c-5.4,0.7-10.8-0.8-15.1-4.1
	c-4.3-3.3-7.1-8.2-7.8-13.5L269.1,280.8z"/>
<path class="st7" d="M326.5,295.9c0.1,0.6-0.1,1.2-0.5,1.7c-0.4,0.5-0.9,0.8-1.5,0.9c-0.3,0.1-0.6,0.1-0.9,0
	c-0.3-0.1-0.6-0.2-0.8-0.4c-0.2-0.2-0.5-0.4-0.6-0.6c-0.2-0.3-0.3-0.5-0.3-0.8c-0.1-0.6,0.1-1.2,0.5-1.7c0.4-0.5,0.9-0.8,1.5-0.9
	c0.3-0.1,0.6-0.1,0.9,0c0.3,0.1,0.6,0.2,0.8,0.4c0.2,0.2,0.5,0.4,0.6,0.6C326.3,295.3,326.4,295.6,326.5,295.9z"/>
<path class="st7" d="M325.9,290.4c-0.3,0.3-2.2-0.8-4.7-0.5c-2.5,0.3-4.2,1.8-4.5,1.5c-0.3-0.3,0.1-0.7,0.8-1.4
	c1-0.9,2.3-1.4,3.6-1.6c1.3-0.2,2.6,0.1,3.8,0.8C325.7,289.7,326,290.2,325.9,290.4z"/>
<path class="st7" d="M302.9,299.1c0.1,0.6-0.1,1.2-0.5,1.7c-0.4,0.5-0.9,0.8-1.5,0.9c-0.3,0.1-0.6,0.1-0.9,0
	c-0.3-0.1-0.6-0.2-0.8-0.3c-0.3-0.2-0.5-0.4-0.6-0.6c-0.2-0.3-0.3-0.5-0.3-0.8c-0.1-0.6,0.1-1.2,0.5-1.7c0.4-0.5,0.9-0.8,1.5-0.9
	c0.3-0.1,0.6-0.1,0.9,0c0.3,0.1,0.6,0.2,0.8,0.3c0.3,0.2,0.5,0.4,0.6,0.6C302.7,298.5,302.9,298.8,302.9,299.1z"/>
<path class="st7" d="M301.1,293.7c-0.3,0.3-2.2-0.8-4.7-0.5c-2.5,0.3-4.2,1.8-4.5,1.4c-0.3-0.4,0-0.7,0.8-1.4c1-0.9,2.3-1.4,3.6-1.6
	c1.3-0.2,2.6,0.1,3.8,0.7C300.9,293,301.2,293.5,301.1,293.7z"/>
<path class="st7" d="M312.4,311.4c1.3-0.6,2.6-1,4-1.2c0.6-0.1,1.2-0.3,1.3-0.8c0-0.7-0.3-1.3-0.6-1.9c-0.8-1.5-1.6-3.1-2.5-4.7
	c-3.5-6.7-6-12.2-5.8-12.4c0.3-0.1,3.3,5.2,6.8,11.9l2.4,4.7c0.5,0.7,0.7,1.6,0.6,2.5c-0.1,0.2-0.2,0.5-0.4,0.6
	c-0.2,0.2-0.4,0.3-0.6,0.4c-0.3,0.1-0.7,0.2-1.1,0.3C315.2,311.2,313.8,311.4,312.4,311.4z"/>
<path class="st9" d="M318.3,341c-8.8,1.2-17.8-0.1-25.9-3.7c0,0,7.7,12.1,26.4,8.3L318.3,341z"/>
<path class="st9" d="M312.1,317.6c-0.5-0.5-1.2-0.9-2-1.1c-0.7-0.2-1.5-0.2-2.3-0.1c-0.6,0.1-1.1,0.3-1.5,0.7
	c-0.5,0.3-0.9,0.7-1.2,1.2c-0.3,0.5-0.4,1-0.4,1.5c0,0.5,0.2,1.1,0.5,1.5c0.5,0.4,1,0.7,1.6,0.8c0.6,0.1,1.2,0,1.8-0.3
	c1.1-0.6,2.2-1.4,3-2.3c0.3-0.2,0.5-0.5,0.6-0.8c0.1-0.1,0.1-0.3,0.1-0.5c0-0.2-0.1-0.3-0.2-0.4"/>
<path class="st7" d="M305.3,314c0.4,0,0.7,2.7,3.3,4.4c2.6,1.7,5.5,1,5.5,1.4c0,0.2-0.6,0.6-1.8,0.8c-1.6,0.2-3.2-0.2-4.6-1
	c-1.3-0.8-2.2-2.2-2.6-3.7C304.8,314.7,305,314,305.3,314z"/>
<path class="st7" d="M300.6,283.7c-0.2,0.7-2.7,0.7-5.7,1.4c-2.9,0.7-5.2,1.8-5.7,1.2c-0.2-0.3,0.1-1,1-1.7c1.2-1,2.6-1.7,4.1-2
	c1.5-0.4,3.1-0.4,4.6,0C300.1,282.9,300.7,283.4,300.6,283.7z"/>
<path class="st7" d="M324.1,283.2c-0.4,0.6-2.2,0.2-4.2,0.4c-2,0.2-3.8,0.8-4.2,0.3c-0.2-0.3,0-0.9,0.7-1.5c1-0.8,2.1-1.2,3.4-1.3
	c1.2-0.1,2.5,0.2,3.5,0.8C324,282.3,324.3,282.9,324.1,283.2z"/>
<path class="st7" d="M273,262.4c-3.6,1.2-7.7,11-6.6,14.6c0.6,1.8,1.7,3.4,3.1,4.7c1.4,1.3,3.1,2.1,5,2.6c3.7,0.8,7.6,0.5,11.2-0.7
	c5.1-1.6,10.5-5.1,10.9-10.4c2.5,2.5,5.7,4.3,9.1,5.2c3.4,0.9,7.1,1,10.5,0.1c6.9-1.8,12-12.3,13.9-19.1L273,262.4z"/>
<path class="st14" d="M308.6,299.2c-0.1,0,0-0.9-0.5-2.5c-0.6-2.2-1.9-4.2-3.8-5.6c-1.9-1.5-4.3-2.2-6.7-2.1
	c-2.4,0.2-4.7,1.2-6.4,2.9c-1.7,1.7-2.8,4-3,6.4c-0.2,2.4,0.5,4.8,1.9,6.8c1.1,1.5,2.6,2.7,4.4,3.4c1.7,0.7,3.7,0.9,5.5,0.6
	c1.5-0.3,3-0.9,4.2-1.9c1.8-1.4,3.2-3.3,3.8-5.5C308.5,300.1,308.4,299.2,308.6,299.2c0,0.2,0,0.4-0.1,0.7c0,0.6-0.1,1.3-0.2,1.9
	c-0.5,2-1.5,3.8-2.9,5.2c-1.5,1.4-3.3,2.4-5.3,2.7c-1.9,0.4-3.8,0.2-5.7-0.4c-2-0.7-3.8-2-5-3.7c-1.4-1.8-2.1-4.1-2.1-6.4
	c0-2.3,0.7-4.5,2.1-6.4c1.2-1.6,2.8-2.9,4.7-3.6c1.9-0.7,3.9-0.9,5.9-0.5c2,0.4,3.8,1.3,5.3,2.7c1.5,1.4,2.5,3.2,2.9,5.2
	c0.2,0.6,0.2,1.3,0.2,1.9C308.5,298.7,308.6,298.9,308.6,299.2z"/>
<path class="st14" d="M334.6,294.5c-0.1,0,0-0.9-0.5-2.5c-0.6-2.2-1.9-4.2-3.8-5.5c-1.3-1-2.9-1.7-4.6-1.9c-1.7-0.2-3.4-0.1-5,0.5
	c-1.9,0.7-3.5,1.9-4.7,3.5c-0.9,1.3-1.5,2.7-1.8,4.3s-0.2,3.1,0.3,4.6c0.5,1.5,1.3,2.9,2.3,4c1.1,1.1,2.4,2,3.9,2.5
	c1.3,0.5,2.7,0.7,4.2,0.6c1.4-0.1,2.8-0.5,4-1.1c1.3-0.7,2.4-1.6,3.2-2.7c0.9-1.1,1.5-2.4,1.9-3.7
	C334.6,295.4,334.5,294.5,334.6,294.5c0.1,0.2,0.1,0.4,0,0.7c0,0.6-0.1,1.3-0.2,1.9c-0.5,2-1.5,3.8-2.9,5.2
	c-1.5,1.4-3.3,2.4-5.3,2.7c-2,0.4-4,0.2-5.9-0.5c-1.9-0.7-3.5-2-4.7-3.6c-1.4-1.8-2.1-4.1-2.1-6.4s0.7-4.5,2.1-6.4
	c1.3-1.7,3-3,5-3.7c1.8-0.6,3.8-0.8,5.7-0.4c2,0.4,3.8,1.3,5.3,2.7c1.5,1.4,2.5,3.2,2.9,5.2c0.2,0.6,0.2,1.3,0.2,1.9
	C334.7,294,334.6,294.3,334.6,294.5z"/>
<path class="st14" d="M307,293.4c-0.1,0-0.1-0.5,0.2-1.2c0.5-0.9,1.3-1.6,2.2-1.9c1-0.3,2-0.2,2.9,0.3c0.7,0.4,0.9,0.8,0.9,0.8
	c-0.1,0.1-0.4-0.2-1.1-0.4c-0.8-0.3-1.7-0.3-2.5,0c-0.8,0.3-1.5,0.8-2,1.4C307.3,293.1,307.1,293.5,307,293.4z"/>
<path class="st14" d="M287.4,301.6c-1.2,0.8-2.6,1.4-4,1.7c-1.3,0.6-2.8,0.9-4.2,1C281.8,303,284.5,302,287.4,301.6L287.4,301.6z"/>
<path class="st8" d="M467.5,333.3c0.4-0.2,0.8-0.4,1.1-0.7c0.3-0.3,0.6-0.7,0.7-1.1c0.2-0.4,0.3-0.8,0.2-1.3c0-0.4-0.1-0.9-0.3-1.3
	l-11.3,3.4c3.2-1.3,6.2-2.9,9.1-4.9c3.1-2.5,1.5-4.7,1.5-4.7l-11.6,4.5l-6.6,3.9l-16.5,25.1c0,0,12.9,6.3,15.2,4.5
	c4-3.2,6.2-10.3,7.1-13.9c2.8-0.7,5.5-1.6,8.1-2.8c1-0.7,1.8-1.6,2.4-2.7l-9,1.7c1.3-0.4,9.6-3.2,10.3-4.2c1.2-1.8,0.4-2.6,0.4-2.6
	l-11.3,1.8l1.2-0.8C458.2,337,464.6,334.4,467.5,333.3z"/>
<path class="st8" d="M426.1,359.4l-37.9,34.7c-4.7-1.1-62.4-35.6-62.4-35.6l-9.1,44.4c0,0,59.1,27.1,75.3,23.9
	c2.7-0.5,7.1-0.9,9.8-4.4c13-16.7,40.6-58,40.6-58L426.1,359.4z"/>
<path class="st8" d="M451.8,357.7l-6.8-3.3l4.9-9l3.9-8.2l6-11.1l-9.1,3.4c-1.1,0.5-2.1,1.2-2.8,2.1l-15.1,20.8l-6.6,6.8l6.4,17.3
	l7.6-11.8l4.4-1C449,362.7,451.8,357.7,451.8,357.7z"/>
<path class="st8" d="M440.8,343.7c3.1-1.6,6.4-2.9,9.8-3.8c1.1-0.4,2.2-0.5,3.4-0.4c0.6,0.1,1.1,0.3,1.6,0.6c0.5,0.4,0.8,0.8,1,1.4
	c0.1,0.6,0,1.3-0.3,1.9c-0.3,0.6-0.7,1.1-1.3,1.4c-1.2,0.6-2.4,1.1-3.7,1.3c-1.3,0.2-2.5,0.9-3.4,1.8c-0.7,1-1.1,2.2-1.4,3.4
	c-0.7,1.9-1.9,3.6-3.4,4.9c-1.5,1.3-3.4,2.2-5.3,2.6"/>
<path class="st9" d="M437.8,358.6c0,0,0.6-0.2,1.6-0.6c1.5-0.6,2.8-1.5,3.9-2.6c0.8-0.8,1.5-1.6,2-2.6c0.6-1.1,1.1-2.3,1.4-3.5
	c0.2-0.7,0.6-1.3,1-1.9c0.5-0.6,1.2-1,1.9-1.3c1.4-0.6,3-0.8,4.3-1.3c0.7-0.3,1.3-0.7,1.7-1.2c0.4-0.5,0.7-1.1,0.7-1.8
	c-0.1-0.6-0.4-1.2-0.9-1.6c-0.5-0.4-1.1-0.6-1.7-0.6c-1.2,0-2.5,0.2-3.6,0.6c-1.1,0.3-2.2,0.7-3.2,1c-1.9,0.7-3.4,1.3-4.5,1.7
	c-0.5,0.3-1.1,0.5-1.6,0.6c0.5-0.4,1-0.7,1.5-0.9c1-0.5,2.5-1.2,4.4-1.9c1-0.4,2-0.7,3.2-1.1c1.2-0.5,2.5-0.7,3.8-0.7
	c0.7,0.1,1.5,0.3,2.1,0.7c0.3,0.2,0.6,0.5,0.8,0.9c0.2,0.4,0.3,0.7,0.4,1.1c0,0.8-0.3,1.6-0.8,2.3c-0.5,0.7-1.2,1.1-2,1.4
	c-1.5,0.6-3,0.8-4.3,1.3c-0.6,0.3-1.2,0.6-1.6,1.1c-0.4,0.5-0.7,1.1-0.9,1.7c-0.3,1.2-0.8,2.4-1.4,3.5c-0.6,1-1.3,1.9-2.2,2.6
	c-1.2,1.1-2.6,2-4.2,2.5c-0.4,0.1-0.9,0.2-1.3,0.3C437.9,358.6,437.8,358.6,437.8,358.6z"/>
<path class="st7" d="M321.4,483.4h-77.8c-7.2,9.2-13.5,19.1-19,29.5l110.7,0.5C337.6,509.7,321.4,483.4,321.4,483.4z"/>
<linearGradient id="SVGID_1_" gradientUnits="userSpaceOnUse" x1="289.5969" y1="231.833" x2="289.5969" y2="100.426" gradientTransform="matrix(1 0 0 -1 0 583.89)">
	<stop  offset="0" style="stop-color:#BA001E"/>
	<stop  offset="1" style="stop-color:#FF8513"/>
</linearGradient>
<path class="st15" d="M344.4,412.8c-2.6-34.8-11.3-56.6-11.3-56.6l-13.5-4.1c-2,8.9-16.5,11.8-24.8,7.9l-8.7-4.6
	c-28-4.2-26.6-1.9-33,2c-5.7,3.4-5.1,28.6-5.1,28.6s-14,65.7-13.2,76.2c0.8,10.5,8.9,21.2,8.9,21.2h77.8c7.8,0,10.1-17.7,9.5-24.1
	C330.4,453,345.3,424.2,344.4,412.8z"/>
<path class="st7" d="M270.6,434.7c0.4,0.4,0.8,0.8,1.3,1.1c1.3,0.9,2.6,1.7,4,2.3c2.1,1,4.3,1.6,6.6,2c2.8,0.4,5.7,0.3,8.5-0.4
	c5-1.3,9.6-3.9,13.2-7.7c1.1-1.1,2.1-2.3,3-3.5c0.4-0.4,0.7-0.9,0.9-1.4c-0.1-0.1-1.5,1.9-4.3,4.5c-3.6,3.5-8.1,6-13,7.3
	c-4.9,1.1-10.1,0.6-14.7-1.4C272.6,436.1,270.7,434.5,270.6,434.7z"/>
<g class="st12">
	<path class="st13" d="M306.9,428.9c-0.5,5.9-3.4,11.4-8,15.3c-2.3,1.9-5,3.2-7.9,3.8c-2.9,0.6-5.9,0.6-8.7-0.2
		c-2.8-0.8-5.4-2.4-7.4-4.6c-2-2.2-3.4-4.9-3.9-7.8c3.9,2,8.1,3.5,12.4,4.3c4.7,0.6,9.4-0.1,13.6-2.1c4.2-2,7.8-5.2,10.3-9.2
		l-0.6,0.7"/>
</g>
<linearGradient id="SVGID_2_" gradientUnits="userSpaceOnUse" x1="248.0319" y1="228.1931" x2="248.0319" y2="154.331" gradientTransform="matrix(1 0 0 -1 0 583.89)">
	<stop  offset="0" style="stop-color:#BA001E"/>
	<stop  offset="1" style="stop-color:#FF8513"/>
</linearGradient>
<path class="st16" d="M218.2,411.2l39.2,18.4c0,0,16-35.3,17.3-40.1c1.4-4.8,5.7-12.5,1.3-22.5c-4.4-10.1-16.2-13.7-22.8-9.5
	C238.5,367,218.2,411.2,218.2,411.2z"/>
<linearGradient id="SVGID_3_" gradientUnits="userSpaceOnUse" x1="354.6135" y1="227.679" x2="354.6135" y2="159.856" gradientTransform="matrix(1 0 0 -1 0 583.89)">
	<stop  offset="0" style="stop-color:#BA001E"/>
	<stop  offset="1" style="stop-color:#FF8513"/>
</linearGradient>
<path class="st17" d="M341.3,413.1c1.8,0,22.8,11,22.8,11l12-39.6c-17.9-11.9-32.5-25.4-42.9-28.3l5.5,32.7L341.3,413.1z"/>
<path class="st7" d="M218.2,411.2c0.3,0.1,0.5,0.2,0.8,0.3l2.2,0.9l7.9,3.5l26,11.8l3.2,1.4l-0.5,0.2c4.5-9.3,8.5-17.6,11.3-23.6
	l3.3-7.1c0.4-0.8,0.6-1.4,0.9-1.9c0.1-0.2,0.2-0.5,0.4-0.6c-0.1,0.2-0.1,0.5-0.2,0.7c-0.2,0.5-0.4,1.1-0.7,2
	c-0.7,1.7-1.7,4.2-3.1,7.2c-2.7,6.1-6.6,14.4-11.1,23.8l-0.2,0.3l-0.3-0.2l-3.2-1.4l-25.9-12.1l-7.8-3.7l-2.1-1.1
	C218.7,411.5,218.4,411.4,218.2,411.2z"/>
<path class="st7" d="M337.8,380.6c0.3,0.8,0.6,1.6,0.8,2.4c0.5,1.7,1.2,4,2.1,6.7c1.7,5.7,4.2,13.5,4.2,22.6
	c-0.1,4.3-0.8,8.5-2.1,12.6c-1.1,3.8-2.3,7.1-3.4,9.9c-1.1,2.8-2,4.9-2.6,6.5c-0.3,0.8-0.6,1.6-1.1,2.3c0-0.2,0.1-0.4,0.2-0.6
	c0.2-0.5,0.4-1.1,0.6-1.8c0.6-1.7,1.4-3.9,2.4-6.6s2.2-6.1,3.3-9.9c1.2-4,1.9-8.2,2-12.4c-0.1-9-2.5-16.9-4.1-22.5
	c-0.8-2.8-1.4-5.1-1.8-6.7c-0.2-0.8-0.4-1.4-0.4-1.9C337.8,381,337.8,380.8,337.8,380.6z"/>
<path class="st7" d="M304.6,372.7c-0.8-5.8-3.5-11.1-7.7-15.2c-2-2-4.5-4.1-4.9-6.9c-0.5-3.7,2.7-7.1,2.2-10.8
	c-0.6-4.6-6.4-6.6-8.5-10.8c-2.8-5.7,2-12.9-0.9-18.4c-1.8-3.3-6.1-5.1-6.9-8.8c-0.6-2.4,4-5.8,5-11c2.4-11.6,3.6-20.5-7.7-27.3
	l-6.5-9c-7.4,3.6-13.5,11.7-13.7,20.1c-0.1,4,2,8,0.2,11.6c-2.4,5-8.1,8.1-9.8,13.4c-2.4,7.6,4.2,16.1,1.4,23.5
	c-1.7,4.4-6.3,6.9-9.2,10.6c-2.2,3-3.2,6.6-3.1,10.3c0.2,3.7,1.6,7.2,4.1,9.9c-3.5,2.5-6.2,6.1-7.6,10.1c-1.4,4.1-1.4,8.5-0.1,12.7
	c1.2,3.4,3.8,6.8,7.4,7.1c5.2,0.3,8.1-5.7,11.9-9.1c3.1-2.7,7-4.1,11-4c4,0.1,7.9,1.7,10.8,4.5c4,4.1,5.7,10.4,10.3,13.7
	c4.6,3.4,11.6,2.8,16.1-0.8c2.2-1.9,3.9-4.3,4.9-7.1C304.6,378.5,305,375.6,304.6,372.7z"/>
<path class="st8" d="M253.5,427.1c-7.4,12.2-12.6,19.2-12.6,19.2l66.5,40.5l-7.8,18l-86.3-35.5c0,0-8.5-8.7-5.5-18.5l13.7-37.9
	L253.5,427.1z"/>
<path class="st9" d="M224.7,452.4c0.2,0.2,3.3-2.4,8-4.1c4.7-1.7,8.8-1.8,8.7-2.1c-3.1-0.2-6.1,0.2-9,1.3
	C229.5,448.6,226.9,450.3,224.7,452.4z"/>
<path class="st8" d="M359,499l-16.6-7.9l-32.4-2.6l-2.6-1.8l-7.8,18c0,0,8.5,4.1,12.9,4.4l27.2-0.8l14.2,1.4L359,499z"/>
<path class="st1" d="M452.3,435.2l-93.3,0.7c-3,0-5.9,1.4-6.4,4.5l-10.2,68h-48.1c-0.8,0-1.5,0.3-2,0.8c-0.5,0.5-0.8,1.2-0.8,2
	c0,0.7,0.3,1.5,0.8,2c0.5,0.5,1.2,0.8,2,0.8h153.5l10.5-71.7c0.1-0.9,0.1-1.8-0.2-2.6s-0.7-1.6-1.2-2.3c-0.6-0.7-1.3-1.2-2.1-1.6
	C454.1,435.4,453.2,435.2,452.3,435.2z"/>
<path class="st7" d="M452.3,435.2c0.5,0,1,0,1.4,0.1c1.4,0.3,2.7,1.2,3.6,2.4c0.6,0.9,1,1.9,1.1,3c0,1.3-0.1,2.6-0.3,3.8
	c-0.4,2.7-0.8,5.9-1.3,9.5c-2.1,14.3-5,34.8-8.7,60v0.2h-0.3l-148.9,0.1h-4c-0.7,0.1-1.5-0.1-2.1-0.4c-0.5-0.3-0.9-0.7-1.2-1.2
	c-0.3-0.5-0.4-1-0.4-1.6s0.2-1.1,0.4-1.6c0.3-0.5,0.7-0.9,1.2-1.2c0.7-0.3,1.4-0.5,2.1-0.4h47.5l-0.4,0.3
	c3.7-24.3,7.1-47.1,10.2-67.4c0.1-1.4,0.7-2.6,1.7-3.5c1-0.9,2.2-1.4,3.6-1.6c1.3-0.1,2.5-0.2,3.8-0.1h3.7l14.1-0.1l25-0.2l35.5-0.2
	h12C452,435.2,452.3,435.2,452.3,435.2l-0.8,0H449l-9.5,0.1l-35.5,0.4l-25,0.2l-14.1,0.1h-3.7c-1.2,0-2.4,0-3.7,0.1
	c-1.2,0.2-2.3,0.6-3.3,1.4c-0.9,0.8-1.5,2-1.5,3.2c-3,20.4-6.4,43.1-10.1,67.4v0.3h-47.8c-0.6-0.1-1.2,0-1.7,0.3
	c-0.4,0.2-0.7,0.5-0.9,0.9c-0.2,0.4-0.3,0.8-0.3,1.2c0,0.4,0.1,0.9,0.3,1.2c0.2,0.4,0.5,0.7,0.9,0.9c0.5,0.3,1.2,0.4,1.8,0.3h4
	l148.9,0.1l-0.3,0.3c3.7-25.2,6.8-45.8,8.9-60c0.5-3.5,1-6.7,1.4-9.5c0.3-1.2,0.4-2.5,0.4-3.8c-0.2-1.2-0.7-2.4-1.5-3.3
	c-0.8-0.9-1.9-1.6-3.1-1.9C453.3,435.3,452.8,435.2,452.3,435.2z"/>
<path class="st6" d="M401.7,479.5c3.2,0,5.8-2.6,5.8-5.8c0-3.2-2.6-5.8-5.8-5.8s-5.8,2.6-5.8,5.8
	C395.9,476.9,398.5,479.5,401.7,479.5z"/>
<path class="st7" d="M346.3,513.3c0.1,0,3.1-17.3,6.6-38.6c3.5-21.4,6.3-38.7,6.2-38.7c-0.1,0-3.1,17.3-6.6,38.7
	C348.9,495.9,346.1,513.3,346.3,513.3z"/>
<path class="st18" d="M5,117c-2.8,0-5,2.2-5,5v75c0,2.8,2.2,5,5,5h294l16,20v-20h40c2.8,0,5-2.2,5-5v-75c0-2.8-2.2-5-5-5H5z"/>
<path class="st19" d="M87.3,151.9V166h-1.8v-6.5h-7.2v6.5h-1.8v-14.1h1.8v6.1h7.2v-6.1H87.3z M90.2,151.8c0-0.3,0.1-0.6,0.3-0.8
	c0.2-0.2,0.5-0.3,0.9-0.3c0.4,0,0.7,0.1,0.9,0.3c0.2,0.2,0.3,0.5,0.3,0.8c0,0.3-0.1,0.6-0.3,0.8c-0.2,0.2-0.5,0.3-0.9,0.3
	c-0.4,0-0.7-0.1-0.9-0.3C90.3,152.4,90.2,152.1,90.2,151.8z M92.3,155v11h-1.8v-11H92.3z M98.1,151.6l-0.3,10.3h-1.5l-0.3-10.3H98.1
	z M98.3,163.9v2.1H96v-2.1H98.3z M108.9,151.9V166h-1.8v-14.1H108.9z M123.1,154.8c1.3,0,2.3,0.4,3.1,1.2c0.8,0.8,1.2,2,1.2,3.5v6.4
	h-1.8v-6.2c0-1.1-0.3-1.9-0.8-2.5c-0.6-0.6-1.3-0.9-2.3-0.9c-1,0-1.8,0.3-2.4,1c-0.6,0.6-0.9,1.6-0.9,2.8v5.8h-1.8v-14.8h1.8v6.4
	c0.3-0.9,0.8-1.6,1.5-2.1C121.4,155.1,122.2,154.8,123.1,154.8z M135,154.9c1.1,0,2,0.3,2.7,0.8c0.7,0.5,1.3,1.2,1.6,2.1V155h1.8v11
	h-1.8v-2.8c-0.3,0.9-0.8,1.6-1.6,2.1c-0.7,0.5-1.6,0.8-2.7,0.8c-1,0-1.8-0.2-2.6-0.7c-0.8-0.5-1.4-1.1-1.8-1.9
	c-0.4-0.9-0.6-1.9-0.6-3s0.2-2.1,0.6-3c0.4-0.9,1-1.5,1.8-2C133.2,155.1,134,154.9,135,154.9z M135.5,156.5c-1.1,0-2,0.4-2.7,1.1
	c-0.7,0.7-1,1.7-1,2.9c0,1.3,0.3,2.2,1,3c0.7,0.7,1.6,1.1,2.7,1.1c0.7,0,1.4-0.2,1.9-0.5c0.6-0.3,1-0.8,1.3-1.4
	c0.3-0.6,0.5-1.3,0.5-2.1s-0.2-1.5-0.5-2.1c-0.3-0.6-0.8-1.1-1.3-1.4C136.9,156.7,136.2,156.5,135.5,156.5z M148.5,164.1l3.4-9h2
	l-4.3,11h-2.2l-4.3-11h2L148.5,164.1z M166.1,159.9c0,0.4,0,0.7-0.1,1h-8.8c0,1.3,0.4,2.2,1.1,2.8c0.7,0.6,1.5,0.9,2.5,0.9
	c0.9,0,1.6-0.2,2.2-0.7c0.6-0.5,1-1.1,1.1-1.8h1.9c-0.1,0.8-0.4,1.4-0.9,2c-0.5,0.6-1,1.1-1.8,1.4c-0.7,0.3-1.6,0.5-2.5,0.5
	c-1.1,0-2-0.2-2.8-0.7c-0.8-0.5-1.5-1.1-1.9-1.9c-0.5-0.9-0.7-1.9-0.7-3s0.2-2.1,0.7-3c0.5-0.9,1.1-1.5,1.9-2
	c0.8-0.5,1.7-0.7,2.8-0.7c1.1,0,2,0.2,2.8,0.7c0.8,0.5,1.4,1.1,1.8,1.8C165.9,158.1,166.1,159,166.1,159.9z M164.2,160
	c0-0.8-0.1-1.5-0.4-2c-0.3-0.5-0.7-1-1.3-1.2c-0.5-0.3-1.1-0.4-1.7-0.4c-1,0-1.8,0.3-2.5,0.9c-0.7,0.6-1,1.5-1.1,2.7H164.2z
	 M178.5,154.9c1.1,0,2,0.3,2.7,0.8c0.7,0.5,1.3,1.2,1.6,2.1V155h1.8v11h-1.8v-2.8c-0.3,0.9-0.8,1.6-1.6,2.1
	c-0.7,0.5-1.6,0.8-2.7,0.8c-1,0-1.8-0.2-2.6-0.7c-0.8-0.5-1.4-1.1-1.8-1.9c-0.4-0.9-0.6-1.9-0.6-3s0.2-2.1,0.6-3
	c0.4-0.9,1-1.5,1.8-2C176.7,155.1,177.5,154.9,178.5,154.9z M179,156.5c-1.1,0-2,0.4-2.7,1.1c-0.7,0.7-1,1.7-1,2.9
	c0,1.3,0.3,2.2,1,3c0.7,0.7,1.6,1.1,2.7,1.1c0.7,0,1.4-0.2,1.9-0.5c0.6-0.3,1-0.8,1.3-1.4c0.3-0.6,0.5-1.3,0.5-2.1s-0.2-1.5-0.5-2.1
	c-0.3-0.6-0.8-1.1-1.3-1.4C180.4,156.7,179.7,156.5,179,156.5z M199.1,154.9c1,0,1.8,0.2,2.6,0.7c0.8,0.5,1.4,1.1,1.8,2
	c0.4,0.9,0.7,1.9,0.7,3s-0.2,2.1-0.7,3c-0.4,0.8-1,1.5-1.8,1.9c-0.8,0.5-1.6,0.7-2.6,0.7c-1.1,0-2-0.3-2.7-0.8
	c-0.7-0.5-1.2-1.3-1.5-2.1v8H193V155h1.8v2.8c0.3-0.9,0.8-1.6,1.5-2.1C197.1,155.2,198,154.9,199.1,154.9z M198.6,156.5
	c-0.7,0-1.3,0.2-1.9,0.5c-0.6,0.3-1,0.8-1.3,1.4c-0.3,0.6-0.5,1.3-0.5,2.1s0.2,1.5,0.5,2.1c0.3,0.6,0.8,1.1,1.3,1.4
	c0.6,0.3,1.2,0.5,1.9,0.5c1.1,0,2-0.4,2.7-1.1c0.7-0.7,1-1.7,1-3c0-1.3-0.3-2.2-1-2.9C200.6,156.9,199.7,156.5,198.6,156.5z
	 M208.6,157.2c0.4-0.8,0.9-1.3,1.6-1.8c0.7-0.4,1.5-0.6,2.5-0.6v2h-0.6c-1,0-1.9,0.3-2.5,0.8c-0.7,0.5-1,1.4-1,2.6v5.8h-1.8v-11h1.8
	V157.2z M219.7,154.9c1.1,0,2,0.2,2.8,0.7c0.8,0.5,1.5,1.1,2,2c0.5,0.9,0.7,1.9,0.7,3s-0.2,2.1-0.7,3c-0.5,0.8-1.1,1.5-2,1.9
	c-0.8,0.5-1.8,0.7-2.8,0.7c-1.1,0-2-0.2-2.8-0.7c-0.8-0.5-1.5-1.1-2-1.9c-0.5-0.9-0.7-1.9-0.7-3s0.2-2.1,0.7-3c0.5-0.9,1.1-1.5,2-2
	C217.7,155.1,218.7,154.9,219.7,154.9z M219.7,156.5c-0.7,0-1.3,0.1-1.8,0.4c-0.5,0.3-1,0.7-1.3,1.4c-0.3,0.6-0.5,1.3-0.5,2.2
	c0,0.9,0.2,1.6,0.5,2.2c0.3,0.6,0.8,1,1.3,1.3c0.6,0.3,1.2,0.4,1.8,0.4c0.7,0,1.3-0.1,1.8-0.4c0.6-0.3,1-0.7,1.3-1.3
	c0.3-0.6,0.5-1.4,0.5-2.2c0-0.9-0.2-1.6-0.5-2.2c-0.3-0.6-0.8-1.1-1.3-1.4C221,156.6,220.4,156.5,219.7,156.5z M234,154.9
	c1,0,1.8,0.2,2.6,0.7s1.4,1.1,1.8,2c0.4,0.9,0.7,1.9,0.7,3s-0.2,2.1-0.7,3c-0.4,0.8-1,1.5-1.8,1.9c-0.8,0.5-1.6,0.7-2.6,0.7
	c-1.1,0-2-0.3-2.7-0.8c-0.7-0.5-1.2-1.3-1.5-2.1v2.8h-1.8v-14.8h1.8v6.6c0.3-0.9,0.8-1.6,1.5-2.1C232,155.2,232.9,154.9,234,154.9z
	 M233.5,156.5c-0.7,0-1.3,0.2-1.9,0.5c-0.6,0.3-1,0.8-1.3,1.4c-0.3,0.6-0.5,1.3-0.5,2.1s0.2,1.5,0.5,2.1c0.3,0.6,0.8,1.1,1.3,1.4
	c0.6,0.3,1.2,0.5,1.9,0.5c1.1,0,2-0.4,2.7-1.1c0.7-0.7,1-1.7,1-3c0-1.3-0.3-2.2-1-2.9C235.5,156.9,234.6,156.5,233.5,156.5z
	 M243.5,151.2V166h-1.8v-14.8H243.5z M256.8,159.9c0,0.4,0,0.7-0.1,1H248c0,1.3,0.4,2.2,1.1,2.8c0.7,0.6,1.5,0.9,2.5,0.9
	c0.9,0,1.6-0.2,2.2-0.7c0.6-0.5,1-1.1,1.1-1.8h1.9c-0.1,0.8-0.4,1.4-0.9,2c-0.5,0.6-1,1.1-1.8,1.4c-0.7,0.3-1.6,0.5-2.5,0.5
	c-1.1,0-2-0.2-2.8-0.7c-0.8-0.5-1.5-1.1-1.9-1.9c-0.5-0.9-0.7-1.9-0.7-3s0.2-2.1,0.7-3c0.5-0.9,1.1-1.5,1.9-2
	c0.8-0.5,1.7-0.7,2.8-0.7c1.1,0,2,0.2,2.8,0.7c0.8,0.5,1.4,1.1,1.8,1.8C256.6,158.1,256.8,159,256.8,159.9z M255,160
	c0-0.8-0.1-1.5-0.4-2c-0.3-0.5-0.7-1-1.3-1.2c-0.5-0.3-1.1-0.4-1.7-0.4c-1,0-1.8,0.3-2.5,0.9c-0.7,0.6-1,1.5-1.1,2.7H255z
	 M273,154.8c1.3,0,2.3,0.4,3.1,1.2c0.8,0.8,1.2,2,1.2,3.5v6.4h-1.8v-6.2c0-1.1-0.3-1.9-0.8-2.5c-0.5-0.6-1.2-0.9-2.2-0.9
	c-1,0-1.7,0.3-2.3,1c-0.6,0.6-0.9,1.6-0.9,2.8v5.8h-1.8v-6.2c0-1.1-0.3-1.9-0.8-2.5c-0.5-0.6-1.3-0.9-2.2-0.9c-1,0-1.8,0.3-2.3,1
	c-0.6,0.6-0.9,1.6-0.9,2.8v5.8h-1.8v-11h1.8v2.5c0.3-0.9,0.7-1.5,1.4-2c0.7-0.5,1.5-0.7,2.4-0.7c0.9,0,1.7,0.2,2.4,0.7
	c0.7,0.5,1.2,1.2,1.5,2.1c0.3-0.9,0.8-1.6,1.5-2.1C271.3,155.1,272.1,154.8,273,154.8z M283,151.6l-0.3,10.3h-1.5l-0.3-10.3H283z
	 M283.1,163.9v2.1h-2.2v-2.1H283.1z"/>
<path class="st18" d="M646,189c-2.8,0-5,2.2-5,5v75c0,2.8,2.2,5,5,5h37v20l16-20h297c2.8,0,5-2.2,5-5v-75c0-2.8-2.2-5-5-5H646z"/>
<path class="st19" d="M696.3,230.9c0,1.4-0.3,2.7-0.9,3.7c-0.6,1.1-1.4,1.9-2.5,2.5c-1.1,0.6-2.4,0.9-4,0.9h-4.5v-14.1h4.5
	c1.6,0,2.9,0.3,4,0.9c1.1,0.6,2,1.4,2.5,2.4C696.1,228.3,696.3,229.5,696.3,230.9z M688.8,236.4c1.8,0,3.2-0.5,4.2-1.4
	c1-0.9,1.5-2.3,1.5-4s-0.5-3.1-1.5-4c-1-1-2.4-1.4-4.2-1.4h-2.5v10.9H688.8z M704.1,226.9c1.1,0,2,0.2,2.8,0.7c0.8,0.5,1.5,1.1,2,2
	c0.5,0.9,0.7,1.9,0.7,3s-0.2,2.1-0.7,3c-0.5,0.8-1.1,1.5-2,1.9c-0.8,0.5-1.8,0.7-2.8,0.7c-1.1,0-2-0.2-2.8-0.7
	c-0.8-0.5-1.5-1.1-2-1.9c-0.5-0.9-0.7-1.9-0.7-3s0.2-2.1,0.7-3s1.1-1.5,2-2C702.1,227.1,703,226.9,704.1,226.9z M704.1,228.5
	c-0.7,0-1.3,0.1-1.8,0.4c-0.5,0.3-1,0.7-1.3,1.4c-0.3,0.6-0.5,1.3-0.5,2.2c0,0.9,0.2,1.6,0.5,2.2c0.3,0.6,0.8,1,1.3,1.3
	c0.6,0.3,1.2,0.4,1.8,0.4s1.3-0.1,1.8-0.4c0.6-0.3,1-0.7,1.3-1.3c0.3-0.6,0.5-1.4,0.5-2.2c0-0.9-0.2-1.6-0.5-2.2
	c-0.3-0.6-0.8-1.1-1.3-1.4C705.3,228.6,704.7,228.5,704.1,228.5z M718,226.8c1.3,0,2.3,0.4,3.1,1.2c0.8,0.8,1.2,2,1.2,3.5v6.4h-1.8
	v-6.2c0-1.1-0.3-1.9-0.8-2.5c-0.6-0.6-1.3-0.9-2.3-0.9c-1,0-1.8,0.3-2.4,1c-0.6,0.6-0.9,1.6-0.9,2.8v5.8h-1.8v-11h1.8v2.6
	c0.3-0.9,0.8-1.6,1.5-2.1C716.3,227.1,717.1,226.8,718,226.8z M726.5,222.2c0.1,0.6,0.2,1.3,0.2,1.8c0,0.7-0.2,1.3-0.5,1.7
	c-0.3,0.4-0.8,0.6-1.5,0.6v-0.8c0.3,0,0.6-0.1,0.7-0.3c0.1-0.2,0.2-0.5,0.2-0.8V224h-1v-1.7H726.5z M734.5,236.4v1.6h-1.4
	c-1.1,0-2-0.3-2.5-0.8c-0.5-0.5-0.8-1.4-0.8-2.7v-5.9h-1.6V227h1.6v-2.7h1.8v2.7h2.8v1.6h-2.8v6c0,0.7,0.1,1.2,0.4,1.5
	c0.3,0.3,0.7,0.4,1.4,0.4H734.5z M757.3,227l-3.2,11h-2l-3-8.9l-3,8.9h-2l-3.1-11h1.8l2.3,9.2l3-9.2h1.9l3.1,9.2l2.4-9.2H757.3z
	 M764.3,226.9c1.1,0,2,0.2,2.8,0.7c0.8,0.5,1.5,1.1,2,2c0.5,0.9,0.7,1.9,0.7,3s-0.2,2.1-0.7,3c-0.5,0.8-1.1,1.5-2,1.9
	c-0.8,0.5-1.8,0.7-2.8,0.7c-1.1,0-2-0.2-2.8-0.7c-0.8-0.5-1.5-1.1-2-1.9c-0.5-0.9-0.7-1.9-0.7-3s0.2-2.1,0.7-3s1.1-1.5,2-2
	C762.3,227.1,763.3,226.9,764.3,226.9z M764.3,228.5c-0.7,0-1.3,0.1-1.8,0.4c-0.5,0.3-1,0.7-1.3,1.4c-0.3,0.6-0.5,1.3-0.5,2.2
	c0,0.9,0.2,1.6,0.5,2.2c0.3,0.6,0.8,1,1.3,1.3c0.6,0.3,1.2,0.4,1.8,0.4c0.7,0,1.3-0.1,1.8-0.4c0.6-0.3,1-0.7,1.3-1.3
	c0.3-0.6,0.5-1.4,0.5-2.2c0-0.9-0.2-1.6-0.5-2.2c-0.3-0.6-0.8-1.1-1.3-1.4C765.6,228.6,765,228.5,764.3,228.5z M774.3,229.2
	c0.4-0.8,0.9-1.3,1.6-1.8c0.7-0.4,1.5-0.6,2.5-0.6v2h-0.6c-1,0-1.9,0.3-2.5,0.8c-0.7,0.5-1,1.4-1,2.6v5.8h-1.8v-11h1.8V229.2z
	 M782.3,229.2c0.4-0.8,0.9-1.3,1.6-1.8c0.7-0.4,1.5-0.6,2.5-0.6v2h-0.6c-1,0-1.9,0.3-2.5,0.8c-0.7,0.5-1,1.4-1,2.6v5.8h-1.8v-11h1.8
	V229.2z M789.2,227l3.6,8.6l3.3-8.6h2l-6.5,16.2h-2.1l2.3-5.4l-4.6-10.8H789.2z M801.1,236.7c0.2,0.6,0.3,1.1,0.3,1.6
	c0,0.7-0.2,1.2-0.5,1.7c-0.3,0.4-0.9,0.6-1.6,0.6v-0.8c0.3,0,0.6-0.1,0.7-0.3c0.2-0.2,0.2-0.5,0.2-0.8v-0.2h-1v-1.9H801.1z
	 M824.2,227l-3.2,11h-2l-3-8.9l-3,8.9h-2l-3.1-11h1.8l2.3,9.2l3-9.2h1.9l3.1,9.2l2.4-9.2H824.2z M836.3,231.9c0,0.4,0,0.7-0.1,1
	h-8.8c0,1.3,0.4,2.2,1.1,2.8c0.7,0.6,1.5,0.9,2.5,0.9c0.9,0,1.6-0.2,2.2-0.7c0.6-0.5,1-1.1,1.1-1.8h1.9c-0.1,0.8-0.4,1.4-0.9,2
	c-0.5,0.6-1,1.1-1.8,1.4c-0.7,0.3-1.6,0.5-2.5,0.5c-1.1,0-2-0.2-2.8-0.7c-0.8-0.5-1.5-1.1-1.9-1.9c-0.5-0.9-0.7-1.9-0.7-3
	s0.2-2.1,0.7-3c0.5-0.9,1.1-1.5,1.9-2c0.8-0.5,1.7-0.7,2.8-0.7c1.1,0,2,0.2,2.8,0.7c0.8,0.5,1.4,1.1,1.8,1.8
	C836,230.1,836.3,231,836.3,231.9z M834.4,232c0-0.8-0.1-1.5-0.4-2s-0.7-1-1.3-1.2s-1.1-0.4-1.7-0.4c-1,0-1.8,0.3-2.5,0.9
	c-0.7,0.6-1,1.5-1.1,2.7H834.4z M859.3,227l-3.2,11h-2l-3-8.9l-3,8.9h-2l-3.1-11h1.8l2.3,9.2l3-9.2h1.9l3.1,9.2l2.4-9.2H859.3z
	 M860.9,223.8c0-0.3,0.1-0.6,0.3-0.8c0.2-0.2,0.5-0.3,0.9-0.3c0.4,0,0.7,0.1,0.9,0.3c0.2,0.2,0.3,0.5,0.3,0.8c0,0.3-0.1,0.6-0.3,0.8
	c-0.2,0.2-0.5,0.3-0.9,0.3c-0.4,0-0.7-0.1-0.9-0.3C861.1,224.4,860.9,224.1,860.9,223.8z M863.1,227v11h-1.8v-11H863.1z
	 M868.1,223.2V238h-1.8v-14.8H868.1z M873.2,223.2V238h-1.8v-14.8H873.2z M885.1,226.9c1.2,0,2.2,0.3,3,1c0.8,0.6,1.2,1.5,1.4,2.6
	h-1.7c-0.1-0.7-0.4-1.2-0.8-1.6c-0.5-0.4-1.1-0.6-1.8-0.6c-0.7,0-1.2,0.2-1.5,0.5c-0.4,0.3-0.5,0.7-0.5,1.3c0,0.4,0.1,0.7,0.4,1
	c0.3,0.2,0.6,0.4,0.9,0.6c0.4,0.1,0.9,0.3,1.5,0.4c0.8,0.2,1.5,0.4,2,0.6c0.5,0.2,0.9,0.5,1.3,0.9c0.4,0.4,0.5,1,0.5,1.7
	c0,0.9-0.3,1.6-1,2.2c-0.7,0.6-1.6,0.8-2.7,0.8c-1.3,0-2.4-0.3-3.2-0.9c-0.8-0.6-1.3-1.5-1.5-2.6h1.8c0.1,0.7,0.4,1.2,0.9,1.6
	c0.5,0.4,1.2,0.6,2,0.6c0.6,0,1.1-0.2,1.5-0.5c0.4-0.3,0.5-0.7,0.5-1.3c0-0.4-0.1-0.8-0.4-1c-0.3-0.3-0.6-0.4-0.9-0.6
	c-0.4-0.1-0.9-0.3-1.5-0.4c-0.8-0.2-1.5-0.4-2-0.6c-0.5-0.2-0.9-0.5-1.2-0.9c-0.3-0.4-0.5-1-0.5-1.7c0-0.9,0.3-1.7,1-2.2
	C883,227.2,883.9,226.9,885.1,226.9z M897.3,226.9c1.1,0,2,0.2,2.8,0.7c0.8,0.5,1.5,1.1,2,2c0.5,0.9,0.7,1.9,0.7,3s-0.2,2.1-0.7,3
	c-0.5,0.8-1.1,1.5-2,1.9c-0.8,0.5-1.8,0.7-2.8,0.7c-1.1,0-2-0.2-2.8-0.7c-0.8-0.5-1.5-1.1-2-1.9c-0.5-0.9-0.7-1.9-0.7-3
	s0.2-2.1,0.7-3c0.5-0.9,1.1-1.5,2-2C895.3,227.1,896.2,226.9,897.3,226.9z M897.3,228.5c-0.7,0-1.3,0.1-1.8,0.4
	c-0.5,0.3-1,0.7-1.3,1.4c-0.3,0.6-0.5,1.3-0.5,2.2c0,0.9,0.2,1.6,0.5,2.2c0.3,0.6,0.8,1,1.3,1.3c0.6,0.3,1.2,0.4,1.8,0.4
	c0.7,0,1.3-0.1,1.8-0.4c0.6-0.3,1-0.7,1.3-1.3c0.3-0.6,0.5-1.4,0.5-2.2c0-0.9-0.2-1.6-0.5-2.2c-0.3-0.6-0.8-1.1-1.3-1.4
	C898.5,228.6,897.9,228.5,897.3,228.5z M907.2,223.2V238h-1.8v-14.8H907.2z M914.7,236.1l3.4-9h2l-4.3,11h-2.2l-4.3-11h2
	L914.7,236.1z M932.3,231.9c0,0.4,0,0.7-0.1,1h-8.8c0,1.3,0.4,2.2,1.1,2.8c0.7,0.6,1.5,0.9,2.5,0.9c0.9,0,1.6-0.2,2.2-0.7
	c0.6-0.5,1-1.1,1.1-1.8h1.9c-0.1,0.8-0.4,1.4-0.9,2c-0.5,0.6-1,1.1-1.8,1.4c-0.7,0.3-1.6,0.5-2.5,0.5c-1.1,0-2-0.2-2.8-0.7
	c-0.8-0.5-1.5-1.1-1.9-1.9c-0.5-0.9-0.7-1.9-0.7-3s0.2-2.1,0.7-3c0.5-0.9,1.1-1.5,1.9-2s1.7-0.7,2.8-0.7c1.1,0,2,0.2,2.8,0.7
	c0.8,0.5,1.4,1.1,1.8,1.8C932.1,230.1,932.3,231,932.3,231.9z M930.4,232c0-0.8-0.1-1.5-0.4-2c-0.3-0.5-0.7-1-1.3-1.2
	c-0.5-0.3-1.1-0.4-1.7-0.4c-1,0-1.8,0.3-2.5,0.9c-0.7,0.6-1,1.5-1.1,2.7H930.4z M939.9,223.8c0-0.3,0.1-0.6,0.3-0.8
	c0.2-0.2,0.5-0.3,0.9-0.3c0.4,0,0.7,0.1,0.9,0.3c0.2,0.2,0.3,0.5,0.3,0.8c0,0.3-0.1,0.6-0.3,0.8c-0.2,0.2-0.5,0.3-0.9,0.3
	c-0.4,0-0.7-0.1-0.9-0.3C940,224.4,939.9,224.1,939.9,223.8z M942,227v11h-1.8v-11H942z M950.5,236.4v1.6h-1.4c-1.1,0-2-0.3-2.5-0.8
	c-0.5-0.5-0.8-1.4-0.8-2.7v-5.9h-1.6V227h1.6v-2.7h1.8v2.7h2.8v1.6h-2.8v6c0,0.7,0.1,1.2,0.4,1.5c0.3,0.3,0.7,0.4,1.4,0.4H950.5z
	 M955.6,223.6l-0.3,10.3h-1.5l-0.3-10.3H955.6z M955.7,235.9v2.1h-2.2v-2.1H955.7z"/>
<path class="st3" d="M402.2,199.1l-7-1.8l-0.4-1.6c4.8-0.8,7.3-2.3,7.4-2.3c0.3-0.2,0.4-0.4,0.4-0.7c0-0.3-0.1-0.6-0.4-0.8
	c0,0-3.3-2.7-3.3-12.1c0-7.9-1.9-11.9-5.5-11.9H393c-1.3-1.3-2.3-1.8-5-1.8c-3.4,0-11,3.5-11,13.8c0,9.4-3.3,12.1-3.3,12.1
	c-0.2,0.2-0.4,0.5-0.4,0.8c0,0.3,0.2,0.6,0.4,0.7c0.1,0.1,2.6,1.5,7.5,2.3l-0.4,1.6l-7,1.8c-4.6,1.1-7.8,5.3-7.8,10
	c0,0.5,0.4,0.9,0.9,0.9h42.2c0.5,0,0.9-0.4,0.9-0.9C410,204.3,406.8,200.2,402.2,199.1z"/>
<rect x="349" y="22" class="st20" width="302.1" height="61"/>
<image style="overflow:visible;" width="1550" height="313" xlink:href="mygrapari.png"  transform="matrix(0.24 0 0 0.24 326.134 7.88)">
</image>
</svg>
