<svg id="Layer_1" data-name="Layer 1" xmlns="http://www.w3.org/2000/svg" xmlns:xlink="http://www.w3.org/1999/xlink" viewBox="0 0 1001 583"><defs><style>.cls-1,.cls-19{fill:#475259;}.cls-2{fill:#e0e0e0;}.cls-3{fill:#ebebeb;}.cls-4{fill:#f5f5f5;}.cls-5{fill:#e8e8e8;}.cls-6{fill:#fafafa;}.cls-7{fill:#fff;}.cls-8{fill:#263238;}.cls-9{fill:#ffbe9d;}.cls-10{fill:#eb996e;}.cls-11{fill:#ff0015;}.cls-12{fill:#ba001e;}.cls-13,.cls-14{opacity:0.3;}.cls-14{isolation:isolate;}.cls-15{fill:#455a64;}.cls-16{fill:url(#linear-gradient);}.cls-17{fill:url(#linear-gradient-2);}.cls-18{fill:url(#linear-gradient-3);}.cls-19{fill-rule:evenodd;}.cls-20{fill:#eeeff0;}.cls-21{fill:none;}</style><linearGradient id="linear-gradient" x1="289.6" y1="231.83" x2="289.6" y2="100.43" gradientTransform="matrix(1, 0, 0, -1, 0, 583.89)" gradientUnits="userSpaceOnUse"><stop offset="0" stop-color="#ba001e"/><stop offset="1" stop-color="#ff8513"/></linearGradient><linearGradient id="linear-gradient-2" x1="248.03" y1="228.19" x2="248.03" y2="154.33" xlink:href="#linear-gradient"/><linearGradient id="linear-gradient-3" x1="354.61" y1="227.68" x2="354.61" y2="159.86" xlink:href="#linear-gradient"/></defs><path class="cls-1" d="M530.88,326.42a24.64,24.64,0,0,1,0,8.48A24.64,24.64,0,0,1,530.88,326.42Z"/><path class="cls-1" d="M530.88,297.17a72.89,72.89,0,0,1,0,14.62A72.89,72.89,0,0,1,530.88,297.17Z"/><path class="cls-1" d="M530.88,267.9a73,73,0,0,1,0,14.63A73,73,0,0,1,530.88,267.9Z"/><path class="cls-1" d="M522.4,244.79a48,48,0,0,1,8.48-.36l.36.36v3.3l-.08,2.7a8.35,8.35,0,0,1-.26,2.49,8.35,8.35,0,0,1-.26-2.49v-6c.15.17-.37-.36.36.37A49.45,49.45,0,0,1,522.4,244.79Z"/><path class="cls-1" d="M489.53,244.79a93.91,93.91,0,0,1,16.43,0,91.38,91.38,0,0,1-16.43,0Z"/><path class="cls-1" d="M464.62,244.79a25.15,25.15,0,0,1,8.48,0,24.48,24.48,0,0,1-8.48,0Z"/><path class="cls-1" d="M811.64,327.13a66.54,66.54,0,0,1-11.64,0A66.54,66.54,0,0,1,811.64,327.13Z"/><path class="cls-1" d="M834.92,327.13a66.54,66.54,0,0,1-11.64,0A66.54,66.54,0,0,1,834.92,327.13Z"/><path class="cls-1" d="M858.2,327.13a66.54,66.54,0,0,1-11.64,0A66.54,66.54,0,0,1,858.2,327.13Z"/><path class="cls-2" d="M881.48,327.13a66.54,66.54,0,0,1-11.64,0A66.54,66.54,0,0,1,881.48,327.13Z"/><path class="cls-2" d="M904.76,327.13a66.54,66.54,0,0,1-11.64,0A66.54,66.54,0,0,1,904.76,327.13Z"/><path class="cls-2" d="M927.59,327.58a1.65,1.65,0,0,1-.1-.45l.1.1c-.88.08-2.91.15-5.37.15a34.33,34.33,0,0,1-5.82-.25,34.33,34.33,0,0,1,5.82-.25c2.42,0,4.49.06,5.37.15h0l0,0a.1.1,0,0,1,0,0v0C927.65,327.42,927.63,327.58,927.59,327.58Z"/><path class="cls-2" d="M927.59,350.84a65.16,65.16,0,0,1,0-11.63,67.75,67.75,0,0,1,0,11.63Z"/><path class="cls-1" d="M927.59,374.11a65.27,65.27,0,0,1,0-11.64,67.87,67.87,0,0,1,0,11.64Z"/><path class="cls-1" d="M927.59,397.37a65.16,65.16,0,0,1,0-11.63,67.75,67.75,0,0,1,0,11.63Z"/><path class="cls-1" d="M927.59,420.64a65.27,65.27,0,0,1,0-11.64,67.87,67.87,0,0,1,0,11.64Z"/><path class="cls-1" d="M927.59,443.9a65.16,65.16,0,0,1,0-11.63,67.75,67.75,0,0,1,0,11.63Z"/><path class="cls-1" d="M916.46,456.05a33.33,33.33,0,0,1,5.82-.26c2.37,0,4.41.06,5.31.15l-.1.11c0-.33.06-.52.1-.52s.06.19.1.52a.14.14,0,0,1,0,.06l-.06,0c-.9.1-2.91.16-5.31.16A34.56,34.56,0,0,1,916.46,456.05Z"/><path class="cls-1" d="M893.18,456.05a66.54,66.54,0,0,1,11.64,0A68.55,68.55,0,0,1,893.18,456.05Z"/><path class="cls-3" d="M868.65,301.73,871,340a2.58,2.58,0,0,0,2.58,2.43h68.87a2.59,2.59,0,0,0,1.82-.76,2.62,2.62,0,0,0,.77-1.83V310a2.61,2.61,0,0,0-.77-1.83,2.57,2.57,0,0,0-1.83-.76l-42.35.28a2.68,2.68,0,0,1-1.84-.74l-7.35-7.24a2.56,2.56,0,0,0-1.81-.75H871.22a2.55,2.55,0,0,0-1,.21,2.72,2.72,0,0,0-.86.6,2.63,2.63,0,0,0-.54.89A2.58,2.58,0,0,0,868.65,301.73Z"/><path class="cls-4" d="M945,302.94H869.78v44.93H945Z"/><path class="cls-3" d="M863.81,307l5.74,46.85a1.67,1.67,0,0,0,1.65,1.46h73.31a1.67,1.67,0,0,0,1.13-.44,1.62,1.62,0,0,0,.53-1.09l3.7-46.85a1.67,1.67,0,0,0-.44-1.26,1.56,1.56,0,0,0-.55-.4,1.54,1.54,0,0,0-.67-.13H865.46a1.5,1.5,0,0,0-.69.14,1.88,1.88,0,0,0-.56.41,1.84,1.84,0,0,0-.34.61A1.66,1.66,0,0,0,863.81,307Z"/><path class="cls-4" d="M613.24,278.68a19.53,19.53,0,0,0,11.65-18.05c0-10.8-8.13-19.57-18.26-19.63s-18.38,8.66-18.38,19.46A19.45,19.45,0,0,0,600,278.68C571.67,282.92,573,313.57,573,313.57l66.7.31S641.2,282.91,613.24,278.68Z"/><path class="cls-1" d="M128.55,436.7a72.14,72.14,0,0,1,0-12.7,72.14,72.14,0,0,1,0,12.7Z"/><path class="cls-1" d="M128.55,462.11a72.79,72.79,0,0,1,0-12.7A70.88,70.88,0,0,1,128.55,462.11Z"/><path class="cls-1" d="M128.55,487.52a72.79,72.79,0,0,1,0-12.7A70.88,70.88,0,0,1,128.55,487.52Z"/><path class="cls-1" d="M128.55,512.93a72.79,72.79,0,0,1,0-12.7A70.88,70.88,0,0,1,128.55,512.93Z"/><path d="M128.55,538.34a72.79,72.79,0,0,1,0-12.7A70.88,70.88,0,0,1,128.55,538.34Z"/><path d="M138.74,553.52a36.57,36.57,0,0,1-6.36.28c-1.46,0-2.82,0-3.88,0l-.08,0-.06-.05a.12.12,0,0,1,0-.08.11.11,0,0,1,0-.08,10.23,10.23,0,0,1,.21-2.47,9.33,9.33,0,0,1,.23,2.47l-.23-.21c1.06,0,2.42-.06,3.88-.06A37.46,37.46,0,0,1,138.74,553.52Z"/><path d="M164.16,553.52a36.42,36.42,0,0,1-6.35.28,36.53,36.53,0,0,1-6.36-.28,37.53,37.53,0,0,1,6.36-.27A37.42,37.42,0,0,1,164.16,553.52Z"/><path class="cls-1" d="M189.59,553.52a36.53,36.53,0,0,1-6.36.28,36.42,36.42,0,0,1-6.35-.28,37.46,37.46,0,0,1,6.35-.27A37.53,37.53,0,0,1,189.59,553.52Z"/><path class="cls-1" d="M210.2,553.52a27.65,27.65,0,0,1-7.85,0,28.66,28.66,0,0,1,7.85,0Z"/><path class="cls-5" d="M79.9,522l2.38,38.58a2.61,2.61,0,0,0,.81,1.74,2.58,2.58,0,0,0,1.79.71h69.5a2.61,2.61,0,0,0,2.61-2.61v-30a2.61,2.61,0,0,0-.77-1.85,2.79,2.79,0,0,0-.85-.56,2.66,2.66,0,0,0-1-.2l-42.74.28a2.68,2.68,0,0,1-1.86-.75L102.36,520a2.63,2.63,0,0,0-.84-.56,2.86,2.86,0,0,0-1-.19h-18a2.64,2.64,0,0,0-1,.21,2.61,2.61,0,0,0-.87.6,2.56,2.56,0,0,0-.55.89A2.47,2.47,0,0,0,79.9,522Z"/><path class="cls-6" d="M157,523.18H81.05v45.35H157Z"/><path class="cls-5" d="M75,527.25l5.8,47.28a1.71,1.71,0,0,0,.55,1.05,1.68,1.68,0,0,0,1.11.42h74a1.69,1.69,0,0,0,1.15-.44,1.67,1.67,0,0,0,.53-1.11l3.73-47.28a2,2,0,0,0-.09-.68,1.71,1.71,0,0,0-.36-.59,1.63,1.63,0,0,0-.56-.4,1.71,1.71,0,0,0-.67-.14H76.68a1.62,1.62,0,0,0-.69.15,1.66,1.66,0,0,0-1,1.74Z"/><path class="cls-7" d="M859.49,346.37H537.74V581.43H859.49Z"/><path class="cls-8" d="M859.49,581.43c0-2.47-.12-92.62-.31-235.06l.31.3H537.77l.37-.37V581.36l-.34-.34,321.75.34-321.75.34h-.34V346H859.88v.3C859.61,488.81,859.49,579,859.49,581.43Z"/><path class="cls-2" d="M860.58,380.58c0,.2-71.88.37-160.52.37s-160.52-.17-160.52-.37,71.85-.37,160.52-.37S860.58,380.38,860.58,380.58Z"/><path class="cls-2" d="M558.37,362.75a4.86,4.86,0,0,1-5.8,4.75,4.84,4.84,0,0,1-1.74-8.78,4.76,4.76,0,0,1,2.69-.82,4.85,4.85,0,0,1,4.85,4.85Z"/><path class="cls-2" d="M573,362.75a4.89,4.89,0,0,1-.82,2.69,4.89,4.89,0,0,1-5,2.06,4.86,4.86,0,0,1-2.48-1.33,4.87,4.87,0,0,1-1-5.29,4.85,4.85,0,0,1,9.33,1.87Z"/><path class="cls-2" d="M587.57,362.75a4.89,4.89,0,0,1-.82,2.69,4.75,4.75,0,0,1-2.18,1.78,4.8,4.8,0,0,1-2.8.28,4.89,4.89,0,0,1-2.49-1.33,5,5,0,0,1-1.32-2.49,4.8,4.8,0,0,1,.28-2.8,4.85,4.85,0,0,1,9.33,1.87Z"/><path class="cls-9" d="M558.65,439.43l2-1.3A7.55,7.55,0,0,1,563.6,437a7.73,7.73,0,0,1,3.1.16,7.64,7.64,0,0,1,4.78,3.75c3.26,5.95,7.32,14.25,7.32,14.25l-8.58,13.56-2.83.09c-3.11,2-10.41-2-15.34-5s-2.5-6-2.5-6c-3.08-4.24,1.17-6,1.17-6a4.52,4.52,0,0,1-.75-3.52,4.4,4.4,0,0,1,.7-1.69,4.47,4.47,0,0,1,1.31-1.29"/><path class="cls-7" d="M554.38,396.53l-62,11.88L509,495.15l62-11.87Z"/><path class="cls-8" d="M509,495.16l-.08-.4c-.08-.28-.16-.68-.26-1.19-.21-1.08-.53-2.65-.93-4.67-.82-4.14-2-10.15-3.49-17.75-3-15.32-7.21-37-12.19-62.68l-.07-.33h.33l62-11.91h.37v.37c6.19,32.5,11.93,62.53,16.56,86.76v.29h-.3l-45.25,8.48-12.31,2.21-3.25.58c-.74.14-1.11.18-1.11.18l1.15-.25,3.29-.67,12.5-2.47L571,483l-.23.36c-4.66-24.24-10.45-54.26-16.71-86.73l.44.28-62,11.84.27-.38c4.83,25.59,8.93,47.24,11.82,62.52l3.31,17.77c.37,2.06.66,3.64.86,4.76.1.52.17.93.23,1.23A2.44,2.44,0,0,1,509,495.16Z"/><path class="cls-8" d="M502.75,428.28c0-.2,10.19-2.32,22.84-4.75s22.95-4.24,23-4-10.14,2.33-22.87,4.74S502.77,428.48,502.75,428.28Z"/><path class="cls-8" d="M503.92,434.41c0-.2,10.19-2.33,22.85-4.75s23-4.23,23-4-10.19,2.34-22.85,4.77S504,434.61,503.92,434.41Z"/><path class="cls-8" d="M505.09,440.53c0-.2,10.2-2.32,22.85-4.75s23-4.24,23-4-10.19,2.33-22.85,4.74S505.12,440.73,505.09,440.53Z"/><path class="cls-8" d="M506.27,446.66c0-.19,10.19-2.33,22.85-4.74s23-4.24,23-4.05-10.2,2.34-22.85,4.77S506.31,446.86,506.27,446.66Z"/><path class="cls-8" d="M507.44,452.78c0-.2,10.2-2.32,22.85-4.75s23-4.24,23-4-10.18,2.33-22.85,4.74S507.48,453,507.44,452.78Z"/><path class="cls-8" d="M508.61,458.91c0-.19,10.2-2.33,22.85-4.74s23-4.24,23-4.05-10.18,2.34-22.85,4.77S508.66,459.11,508.61,458.91Z"/><path class="cls-8" d="M509.79,465c0-.2,10.19-2.32,22.85-4.75s23-4.23,23-4-10.12,2.33-22.85,4.74S509.83,465.23,509.79,465Z"/><path class="cls-8" d="M511,471.16c0-.19,10.2-2.33,22.85-4.74s23-4.24,23-4-10.2,2.33-22.87,4.76S511,471.36,511,471.16Z"/><path class="cls-8" d="M512.13,477.28c0-.2,10.2-2.31,22.85-4.75s23-4.23,23-4-10.2,2.33-22.86,4.75S512.18,477.48,512.13,477.28Z"/><path class="cls-8" d="M545.84,401.38a5.92,5.92,0,0,1,.45,1.54l.94,4.24c.08.45.18.91.3,1.41a3.66,3.66,0,0,1,0,1.36,3.5,3.5,0,0,1-1.49,2.2,3.61,3.61,0,0,1-1.25.52,3.66,3.66,0,0,1-1.36,0,3.46,3.46,0,0,1-1.25-.52,3.54,3.54,0,0,1-1-1,3.34,3.34,0,0,1-.51-1.25l-.2-1c-.13-.67-.26-1.41-.4-2-.25-1.37-.51-2.71-.76-4-.12-.65-.24-1.29-.36-1.91a7.1,7.1,0,0,1-.19-2,4.58,4.58,0,0,1,4.65-4.21A4.44,4.44,0,0,1,547.2,397a3.54,3.54,0,0,1,.41,1.14v.42a13.12,13.12,0,0,0-.69-1.41,4.25,4.25,0,0,0-1.52-1.37,4.33,4.33,0,0,0-2-.51,4,4,0,0,0-3.58,2.23,3.9,3.9,0,0,0-.42,1.56,6.45,6.45,0,0,0,.21,1.75c.11.64.24,1.27.37,1.92.25,1.3.51,2.65.78,4,.14.68.26,1.41.39,2l.19,1a2.72,2.72,0,0,0,.31.82,2.84,2.84,0,0,0,1.19,1.14,2.88,2.88,0,0,0,1.63.27,2.92,2.92,0,0,0,1.41-.63,3,3,0,0,0,.86-1.28,2.93,2.93,0,0,0,.11-1.41c-.08-.48-.17-1-.24-1.41-.28-1.7-.52-3.14-.71-4.24A7.88,7.88,0,0,1,545.84,401.38Z"/><path class="cls-9" d="M564.29,437c-.46,0-18.83,2.82-18.83,2.82-.32,1.7.67,4.09,5,4.16a77.58,77.58,0,0,0,7.81-.29s4.54,9.47,9,10.53,2.28-9.1,2.28-9.1Z"/><path class="cls-8" d="M774.77,377.19c1.6-3.71,3.21-7.52,3.37-11.58s-1.51-8.47-5-10.27c-3.23-1.69-7.2-.9-10.64-2.12-4.24-1.51-6.89-5.78-8.77-10s.73-5.65-2.45-9c-4.24-4.24-7-4.93-12.29-2.3-3.83-2.72-17.16-7.64-21-7.76-5.66-.17-12.19.28-16.18,4.36-3.08,3.17-5,7.21-8.83,9.49-5.22,3.13-11.86.46-17.94.69a3.45,3.45,0,0,0-1.82.33,3.5,3.5,0,0,0-1.39,1.22,3.88,3.88,0,0,0-.09,1.59,3.79,3.79,0,0,0,.58,1.48l4.72,9.75a9.28,9.28,0,0,1-8.14-.2,27.59,27.59,0,0,0,7.22,17.39,2.33,2.33,0,0,0-.93-.24,2.25,2.25,0,0,0-1,.15,2.42,2.42,0,0,0-.81.53,2.19,2.19,0,0,0-.53.81,5.87,5.87,0,0,0,0,3.88,28.49,28.49,0,0,0,38.68,18.74l33.54,2.53a8.48,8.48,0,0,0,5.78,5.37c3.75-2.83,4.36-4.34,4.36-4.34,2.3,1.71.49.85,2.3,1.71,4.16,2,10.31-.37,11.31-5a9.76,9.76,0,0,1,2.22-5.1,17.66,17.66,0,0,1,4.94-2.72,13.68,13.68,0,0,0,6.14-6.28,10,10,0,0,1-7.36-3.18Z"/><path class="cls-9" d="M751.05,362.82l.86,69.23c.14,11.76-2,29.07-20.67,28.46-16.12-1.75-20.41-17-20.52-28,0-5.21-.13-9.55-.17-10.09,0,0-17.64-1.41-19.13-18.86-.72-8.41-.79-25.87-.66-41.65A32.5,32.5,0,0,1,721,329.72l1.69-.12C740.88,329.29,751.29,344.56,751.05,362.82Z"/><path class="cls-10" d="M710.55,422.4A42.34,42.34,0,0,0,732.78,414s-4.61,13.12-22.13,12.83Z"/><path class="cls-8" d="M720.55,369c.34.35,2.36-1.27,5.27-1.41s5.11,1.41,5.42,1-.21-.8-1.18-1.41a7.27,7.27,0,0,0-4.34-1.23,7,7,0,0,0-4.24,1.53C720.66,368.2,720.38,368.86,720.55,369Z"/><path class="cls-8" d="M720,375.51a2.34,2.34,0,0,0,2.44,2.2,2.22,2.22,0,0,0,.88-.17,2.17,2.17,0,0,0,.74-.49,2.32,2.32,0,0,0,.49-.75,2.21,2.21,0,0,0,.15-.88,2.29,2.29,0,0,0-.22-.89,2.34,2.34,0,0,0-.55-.73,2.27,2.27,0,0,0-.79-.47,2.63,2.63,0,0,0-1.78.05,2.31,2.31,0,0,0-.73.5,2.29,2.29,0,0,0-.48.75A2.21,2.21,0,0,0,720,375.51Z"/><path class="cls-8" d="M713.24,389.31a19.28,19.28,0,0,0-4.41-.47c-.7,0-1.42-.1-1.5-.56a3.4,3.4,0,0,1,.31-2.06l1.64-5.36c2.26-7.62,3.86-13.86,3.55-13.95s-2.41,6-4.67,13.64c-.53,1.88-1.06,3.66-1.55,5.38a3.93,3.93,0,0,0-.16,2.7,1.59,1.59,0,0,0,.49.6,1.6,1.6,0,0,0,.7.32,4.17,4.17,0,0,0,1.17.08A16.92,16.92,0,0,0,713.24,389.31Z"/><path class="cls-8" d="M721.79,358c.29.65,2.62.17,5.42.31s5.1.76,5.43.14c.14-.29-.3-.89-1.25-1.41a9.14,9.14,0,0,0-8.27-.34C722.15,357.18,721.66,357.74,721.79,358Z"/><path class="cls-8" d="M694.07,363.45c.29.53,2.57,0,5.34-.14s5.05.27,5.34-.28c.13-.27-.34-.74-1.3-1.16a9.58,9.58,0,0,0-4.07-.66,9.9,9.9,0,0,0-4.07,1C694.36,362.69,694,363.2,694.07,363.45Z"/><path class="cls-9" d="M750.54,375.83c.28-.14,11.72-4.41,12.21,7.53s-11.6,10-11.65,9.64S750.54,375.83,750.54,375.83Z"/><path class="cls-10" d="M754.59,388.36a6.22,6.22,0,0,0,.58.29,2.21,2.21,0,0,0,1.56,0c1.24-.53,2.22-2.58,2.19-4.72a6.89,6.89,0,0,0-.7-3,2.44,2.44,0,0,0-1.63-1.54,1.08,1.08,0,0,0-1.2.62c-.16.34-.07.58-.13.6s-.27-.19-.2-.68a1.41,1.41,0,0,1,.45-.78,1.55,1.55,0,0,1,.54-.28,1.5,1.5,0,0,1,.6-.06,2.89,2.89,0,0,1,1.36.58,2.73,2.73,0,0,1,.88,1.18,7,7,0,0,1,.87,3.3c0,2.4-1.12,4.71-2.83,5.29a2.33,2.33,0,0,1-1,.1A2.37,2.37,0,0,1,755,389C754.64,388.6,754.55,388.36,754.59,388.36Z"/><path class="cls-8" d="M716.05,397.59c-.13-.31,2.21-1,3.86-3.21a13.1,13.1,0,0,0,1.66-3.11c.35-.87.6-1.41.73-1.41s.1.62-.1,1.57a8.84,8.84,0,0,1-1.54,3.49,7.06,7.06,0,0,1-3,2.33C716.7,397.66,716.08,397.69,716.05,397.59Z"/><path class="cls-8" d="M766.46,356.5c-2.49-4.24-3.07-9.24-4.44-13.95s-4-9.56-8.58-11.21h-.12c-4.14-1.67-9.24-1.7-12.64,1.17-.85-6.21-6.29-11.12-12.35-12.72s-15.8-.65-21.61,1.7c-4.5,1.81-8.84,5.51-14.14,10.95a57.49,57.49,0,0,0-6.09,7.39l-5.23,16.35a6.34,6.34,0,0,0-1.49,1.48,3,3,0,0,0-.51,2.08,3.07,3.07,0,0,0,5,2c.54.92,1,1.85,1.42,2.82l.08.17a17.79,17.79,0,0,0,.89,1.74l4.07,18c.27-4.91-.1-22,.16-26.85a27.44,27.44,0,0,0,19.51-9c2.67-3,4.78-6.68,8.37-8.48,4.63-2.29,10.13-.62,15,1.08l-.21-.19a22,22,0,0,1,6.76,4.86,67.78,67.78,0,0,0,2.94,28.77c.45,1.41,1.7,4.24,3.07,4.79,2.69,1,3.41-1.69,5-3.15a7.18,7.18,0,0,1,4.89-1.2,108.11,108.11,0,0,0,3.28-12.39,11.08,11.08,0,0,0,5,.34c-.52-1.23-1-2.46-1.55-3.71a5.71,5.71,0,0,0,2.14,1,2,2,0,0,0,1.17-.12,1.91,1.91,0,0,0,.87-.77C767.59,358.44,767,357.38,766.46,356.5Z"/><path class="cls-11" d="M735.2,334.57a17.44,17.44,0,0,1,1.73,1.6,12.37,12.37,0,0,1,2.69,5.78,22.71,22.71,0,0,1,.44,4.43c0,1.6-.13,3.32-.24,5.13a42.64,42.64,0,0,0-.13,5.65,20.57,20.57,0,0,0,.38,3,6.49,6.49,0,0,0,1.23,2.92,2.69,2.69,0,0,0,1.13.74,2.65,2.65,0,0,0,1.34.08,3.93,3.93,0,0,0,2.21-1.24,9.14,9.14,0,0,0,1.73-4.38h-.37a15.19,15.19,0,0,0,2.12,3.66,5.27,5.27,0,0,0,3.4,1.84,3.37,3.37,0,0,0,1.79-.32,2.77,2.77,0,0,0,1.22-1.2,3,3,0,0,0,.37-1.54,2.18,2.18,0,0,0-.56-1.41l-.18.16a18,18,0,0,0,4.93,3.43,1.53,1.53,0,0,0,.41.1,1.71,1.71,0,0,0-.39-.17c-.25-.1-.64-.26-1.12-.5a11.7,11.7,0,0,1-3.62-2.82l-.18.17a2.21,2.21,0,0,1,.11,2.58,2.56,2.56,0,0,1-1.1,1.06,3,3,0,0,1-1.63.27,4.87,4.87,0,0,1-3.15-1.75,15.2,15.2,0,0,1-2-3.67l-.25-.57-.12.61a8.9,8.9,0,0,1-1.6,4.24,3.55,3.55,0,0,1-2,1.11,2.2,2.2,0,0,1-1.14-.07,2.4,2.4,0,0,1-1-.63,5.85,5.85,0,0,1-1.14-2.73,18.32,18.32,0,0,1-.38-3,46.49,46.49,0,0,1,.09-5.66c.12-1.8.24-3.53.22-5.15a22,22,0,0,0-.5-4.5,12.36,12.36,0,0,0-2.83-5.82A7.25,7.25,0,0,0,735.2,334.57Z"/><path class="cls-11" d="M681.26,351.53l.14.11.43.32a8.35,8.35,0,0,0,.74.47,10.64,10.64,0,0,0,1.06.55,15.23,15.23,0,0,0,7.47,1.34,19.56,19.56,0,0,0,10.51-3.87,33.83,33.83,0,0,0,9-10.41c1.27-2.11,2.31-4.24,3.45-6.27a23.19,23.19,0,0,1,3.92-5.3,11.78,11.78,0,0,1,5-3.06,8.15,8.15,0,0,1,2.65-.29,9.24,9.24,0,0,1,2.43.46,10,10,0,0,1,3.63,2.18,10.23,10.23,0,0,1,2,2.56,11.49,11.49,0,0,1,.89,2.61v-.72a8.89,8.89,0,0,0-.67-2,10,10,0,0,0-2.06-2.65,10.43,10.43,0,0,0-3.71-2.3,9.75,9.75,0,0,0-2.5-.51,9.18,9.18,0,0,0-2.76.3,12.39,12.39,0,0,0-5.19,3.11,23.24,23.24,0,0,0-4,5.37c-1.15,2-2.18,4.24-3.44,6.26a34.31,34.31,0,0,1-8.91,10.31,19.53,19.53,0,0,1-10.32,3.9,15.57,15.57,0,0,1-7.38-1.2A27.18,27.18,0,0,1,681.26,351.53Z"/><path class="cls-11" d="M679.67,343.87a3.32,3.32,0,0,0,.62.44,16.13,16.13,0,0,0,1.86.93,16.84,16.84,0,0,0,2.94,1,19,19,0,0,0,7.52.24,18.09,18.09,0,0,0,3-.76,18.92,18.92,0,0,0,1.91-.82,3.91,3.91,0,0,0,.65-.4s-1,.43-2.64.93a20.56,20.56,0,0,1-3,.68,22.79,22.79,0,0,1-3.69.23,21.67,21.67,0,0,1-3.68-.47,19.81,19.81,0,0,1-2.91-.86C680.65,344.35,679.71,343.8,679.67,343.87Z"/><path class="cls-8" d="M694,370.12c.35.35,2.36-1.27,5.29-1.41s5.09,1.41,5.4,1-.21-.82-1.16-1.41a7.42,7.42,0,0,0-4.34-1.23,6.88,6.88,0,0,0-4.24,1.53C694,369.3,693.75,370,694,370.12Z"/><path class="cls-8" d="M695.58,375.9a2.34,2.34,0,0,0,2.44,2.2,2.18,2.18,0,0,0,.88-.16,2.35,2.35,0,0,0,.75-.5,2.28,2.28,0,0,0,.49-.74,2.22,2.22,0,0,0,.16-.88,2.35,2.35,0,0,0-.77-1.61,2.32,2.32,0,0,0-1.68-.61,2.36,2.36,0,0,0-.87.17,2.52,2.52,0,0,0-.75.5,2.49,2.49,0,0,0-.49.75A2.22,2.22,0,0,0,695.58,375.9Z"/><path class="cls-11" d="M682.34,440.64l-63.06,41.25L580.87,452l-12,18.95s22.37,25.87,30.66,34.66S613.39,519,619.9,518.19s61.14-22,61.14-22l8.29-57.85-3.48.84A10.69,10.69,0,0,0,682.34,440.64Z"/><path class="cls-11" d="M752.72,426.51c-14.14,8.86-28.28,12.2-42.73,6.46l-21.67,5.53L677.8,456.78a16.62,16.62,0,0,0-2.16,9.48l4.2,70L667.11,580.7,792,581.77l-6.15-33L770.36,430.06Z"/><path class="cls-11" d="M771.75,483.34l-3.91-53.58s29.4,2.72,39.13,23.45c8.18,17.46,32.79,68.23,35.2,75.41,7.07,21.09-6,51.87-51.73,50.19l-5.22-28.67Z"/><path class="cls-8" d="M795.29,528a13.12,13.12,0,0,0,.72,2.11c.51,1.28,1.26,3,2.12,4.94l2.21,4.91a14.7,14.7,0,0,0,1,2,13.09,13.09,0,0,0-.74-2.1c-.49-1.29-1.24-3-2.1-4.95l-2.21-4.9A18.51,18.51,0,0,0,795.29,528Z"/><path class="cls-8" d="M779,485.77c.1,0,.19-3.39.19-7.57s-.09-7.59-.19-7.59-.17,3.39-.17,7.59S778.93,485.77,779,485.77Z"/><path class="cls-8" d="M783.34,463a3.24,3.24,0,0,0,.27-.85,23.45,23.45,0,0,1,.71-2.3,37.1,37.1,0,0,1,8-13.57,18,18,0,0,1,1.67-1.73,4.59,4.59,0,0,0,.61-.64,3.29,3.29,0,0,0-.69.54,21.33,21.33,0,0,0-1.77,1.66,33.18,33.18,0,0,0-8,13.67,21.13,21.13,0,0,0-.6,2.34A5.2,5.2,0,0,0,783.34,463Z"/><path class="cls-8" d="M679.64,459.65a6.84,6.84,0,0,1,.17,1.75c0,1.13.09,2.83,0,4.79,0,4-.46,9.61-1,15.74a155.26,155.26,0,0,0-.62,15.7c0,2,.11,3.64.21,4.76a8.53,8.53,0,0,1,0,1.75,6.7,6.7,0,0,1-.32-1.72c-.19-1.12-.34-2.74-.46-4.76a122.38,122.38,0,0,1,.41-15.79c.5-6.14,1-11.68,1.18-15.71.1-2,.15-3.63.18-4.76A10.2,10.2,0,0,1,679.64,459.65Z"/><path class="cls-8" d="M814,537.8a14.17,14.17,0,0,1-2,1.13c-1.31.69-3.18,1.73-5.46,3.1s-5,3-8.08,4.64c-1.57.81-3.24,1.61-5,2.38L788,551.31l-1.69.69.23-.41c1.2,7.59,2.23,14.39,2.94,19.29.34,2.36.61,4.31.81,5.79a10.21,10.21,0,0,1,.19,2.14,14,14,0,0,1-.46-2.09c-.27-1.49-.61-3.43-1-5.76-.85-4.89-2-11.67-3.18-19.24v-.3l.26-.11,1.69-.68,5.45-2.25c1.76-.75,3.41-1.52,5-2.31,3.12-1.57,5.82-3.2,8.14-4.5a61.81,61.81,0,0,1,5.66-2.89c.68-.33,1.2-.54,1.57-.7S814,537.77,814,537.8Z"/><path class="cls-8" d="M820.67,528.62c0,.12-1.49.41-3.78,1.27a28.61,28.61,0,0,0-14.41,11.88c-1.27,2.08-1.83,3.51-2,3.46a3.15,3.15,0,0,1,.28-1A18.67,18.67,0,0,1,802,541.5a26,26,0,0,1,14.69-12.11,18.53,18.53,0,0,1,2.83-.69A3.25,3.25,0,0,1,820.67,528.62Z"/><path class="cls-12" d="M773.16,581.21l30.68-74c1.42-3.37-.35-6.11-3.93-6.11h-6.16c-2.52,0-4.24-1.42-4.4-3.55l-.21-2.71c-.16-2.18-1.88-3.57-4.4-3.57h-29.4a10.25,10.25,0,0,0-6.78,3l-2.39,2.31a10.22,10.22,0,0,1-6.79,3H702a10.48,10.48,0,0,0-8.93,6.12l-30.41,75.5Z"/><g class="cls-13"><path class="cls-14" d="M773.16,581.21l30.68-74c1.42-3.37-.35-6.11-3.93-6.11h-6.16c-2.52,0-4.24-1.42-4.4-3.55l-.21-2.71c-.16-2.18-1.88-3.57-4.4-3.57h-29.4a10.25,10.25,0,0,0-6.78,3l-2.39,2.31a10.22,10.22,0,0,1-6.79,3H702a10.48,10.48,0,0,0-8.93,6.12l-30.41,75.5Z"/></g><path class="cls-2" d="M778.17,556.09l11.58-44.73c.76-2.94-1.18-5.89-3.86-5.89H695.18a4.07,4.07,0,0,0-2.5,1,4.13,4.13,0,0,0-1.36,2.32l-16.84,67.3c-.75,3,.44,4.74,3.13,4.71h91.31a4.12,4.12,0,0,0,3.8-3.29Z"/><path class="cls-3" d="M771.9,579.12l4.94-70.41a4.29,4.29,0,0,0-1.16-3.25,4.23,4.23,0,0,0-1.43-1,4.29,4.29,0,0,0-1.73-.36h-94v75Z"/><path class="cls-6" d="M773,580.8l-11.1-72.6a5.23,5.23,0,0,0-5.12-4.06H661.59a5.14,5.14,0,0,0-2.46.6,5,5,0,0,0-1.87,1.68,5.1,5.1,0,0,0-.85,2.38,5.16,5.16,0,0,0,.38,2.49l20.53,66.41Z"/><path class="cls-12" d="M773.16,581.16l-23.06-68a6.77,6.77,0,0,0-2.45-3.4,6.85,6.85,0,0,0-4-1.34H645.61a4.87,4.87,0,0,0-2.14.59,4.79,4.79,0,0,0-2.23,5.77l21.45,66.41Z"/><g class="cls-13"><path class="cls-14" d="M725.71,569.79s3.7.17,5.41.28a50.3,50.3,0,0,0,23.81-4.23c2.31-1,4.74-2.48,5.45-4.91.78-2.71-1-5.54-3.13-7.37s-4.76-3.15-6.61-5.29-2.75-5.57-.92-7.71l.51.38c1.32,3.35,5,5,8.07,6.89a28.41,28.41,0,0,1,12,15.64c1.08,3.52,1.42,7.63-.78,10.63a13.23,13.23,0,0,1-6.43,4.24c-7.42,2.82-15.34,2.82-23.26,2.82-2.49,0-10.16-.11-10.16-.11-2.41-.65-3.21-1.9-4.66-3.94S723.94,571.25,725.71,569.79Z"/></g><path class="cls-9" d="M725.71,569.79,751.27,566l9.9-5.65a4.54,4.54,0,0,0,1.6-1.51,4.46,4.46,0,0,0,.68-2.1v-.18a4.57,4.57,0,0,0-2.83-4.33c-3.15-1.32-8.13-3.08-10.27-6.81-3.05-5.35,0-6.45,0-6.45l21.35,8.48,15.12,10.28,3.09,17.2-21.09,6.88s-23.49,1.33-30,.61-6.47-3.75-6.47-3.75c-1.2-.38-3.65-2.51-3.64-4.51-3.15-3-3-4.33-3-4.33"/><path class="cls-10" d="M758.41,577.17a4.82,4.82,0,0,0-1.06.19c-.66.17-1.64.39-2.82.63a64.75,64.75,0,0,1-9.52,1.13,62.32,62.32,0,0,1-9.56-.4c-1.23-.14-2.21-.28-2.83-.4a5.47,5.47,0,0,0-1.07-.11,5.52,5.52,0,0,0,1,.28c.67.17,1.64.36,2.83.54a51.63,51.63,0,0,0,19.19-.75c1.2-.28,2.16-.53,2.83-.75A5.66,5.66,0,0,0,758.41,577.17Z"/><path class="cls-10" d="M756.07,573.21a6.22,6.22,0,0,0-1.06.21c-.68.16-1.67.38-2.83.61a61.67,61.67,0,0,1-9.67,1.07,63.11,63.11,0,0,1-9.72-.45c-1.24-.14-2.23-.28-2.92-.39a4.43,4.43,0,0,0-1.08-.13,5.42,5.42,0,0,0,1.05.28c.68.17,1.67.36,2.91.55a55,55,0,0,0,9.77.57,51.16,51.16,0,0,0,9.71-1.2c1-.21,1.9-.46,2.83-.75A4.53,4.53,0,0,0,756.07,573.21Z"/><path class="cls-9" d="M344.3,367.32a23.84,23.84,0,0,1,12.19,10.59c4.58,8.1,3.35,12.1,2.16,16.89s-3.31,14.3-3.42,13.68S344.3,367.32,344.3,367.32Z"/><path class="cls-7" d="M480.62,268.61H151.32V513h329.3Z"/><path class="cls-8" d="M480.59,513c0-2.49-.12-96.46-.3-244.45l.3.3-329.25.07.37-.37V513l-.33-.33,329.28.33-329.28.34H151V268.24H481v.31C480.74,416.54,480.59,510.51,480.59,513Z"/><path class="cls-2" d="M480.06,302.71c0,.2-73,.37-163,.37s-163-.11-163-.37,73-.36,163-.36S480.06,302.56,480.06,302.71Z"/><path class="cls-2" d="M172.87,284.93a4.82,4.82,0,0,1-3,4.49,4.89,4.89,0,0,1-2.8.29,4.84,4.84,0,1,1,5.77-4.78Z"/><path class="cls-2" d="M187.46,284.93a4.8,4.8,0,0,1-.8,2.7,4.87,4.87,0,0,1-5,2.08,5,5,0,0,1-2.49-1.32,4.89,4.89,0,0,1-1.33-2.49,4.85,4.85,0,1,1,9.6-1Z"/><path class="cls-2" d="M202,284.93a4.8,4.8,0,0,1-.8,2.7,4.85,4.85,0,0,1-8.52-4.54,4.85,4.85,0,0,1,9.32,1.84Z"/><path class="cls-8" d="M333.54,263.15c-1.09-4-3.25-7.87-6.83-9.89-1.68-1-3.61-1.53-5.33-2.46a63.09,63.09,0,0,1-5.74-4.17,20.43,20.43,0,0,0-29.86,7.56c-4-3.06-11-1.76-15.74,0s-8.72,7.36-9.9,12.28L282.48,273a59.41,59.41,0,0,0,15.22,12.52,30.91,30.91,0,0,0,19.08,3.86,21,21,0,0,0,15.71-10.73A21.94,21.94,0,0,0,333.54,263.15Z"/><path class="cls-8" d="M349.38,336.84a13.33,13.33,0,0,0,2.82-18.37c-1.26-1.63-3-3.11-3.25-5.14a10.24,10.24,0,0,1,.54-3.72,22,22,0,0,0-8.08-22.38c-.12-4.57-2.68-14.22-8.48-17.9L306.58,273q1.79,41.59-.25,83.18c-.21,4.24-.36,8.82,2,12.38,3.29,5.06,10.17,6.11,16.19,6.26a48,48,0,0,0,17.09-2c5.45-1.91,10.47-5.66,12.73-11C357.83,353.75,354.21,344.28,349.38,336.84Z"/><path class="cls-9" d="M269.06,280.79l-.79-5.9L303,264.06c10.82-2.42,23.93,7.19,25.89,18.1,2.16,12.11,4.34,27,4,36.25C332,337.06,318.27,341,318.27,341l1.41,11.05a20.44,20.44,0,0,1-40.54,5.26Z"/><path class="cls-8" d="M326.47,295.86a2.36,2.36,0,0,1-2,2.63,2.3,2.3,0,0,1-1.72-.36,2.22,2.22,0,0,1-.62-.64,2.32,2.32,0,0,1-.32-.84,2.36,2.36,0,0,1,.46-1.72,2.39,2.39,0,0,1,1.53-.91,2.27,2.27,0,0,1,.9,0,2.08,2.08,0,0,1,.82.36,2.22,2.22,0,0,1,.62.64A2.32,2.32,0,0,1,326.47,295.86Z"/><path class="cls-8" d="M325.92,290.38c-.26.34-2.19-.78-4.72-.48s-4.25,1.78-4.54,1.5.08-.71.82-1.42a6.48,6.48,0,0,1,3.59-1.58,6.29,6.29,0,0,1,3.8.76C325.72,289.7,326.05,290.22,325.92,290.38Z"/><path class="cls-8" d="M302.91,299.07a2.36,2.36,0,0,1-2,2.63,2.32,2.32,0,0,1-.91,0,2.13,2.13,0,0,1-.84-.34,2.43,2.43,0,0,1-.64-.64,2.29,2.29,0,0,1-.34-.84,2.36,2.36,0,0,1,2-2.63,2.15,2.15,0,0,1,.91,0,2.17,2.17,0,0,1,.85.34,2.29,2.29,0,0,1,.64.64A2.22,2.22,0,0,1,302.91,299.07Z"/><path class="cls-8" d="M301.12,293.7c-.26.34-2.19-.76-4.73-.47s-4.24,1.77-4.53,1.42,0-.71.82-1.42a6.39,6.39,0,0,1,3.59-1.56,6.29,6.29,0,0,1,3.8.74C300.92,293,301.24,293.54,301.12,293.7Z"/><path class="cls-8" d="M312.44,311.39a16.72,16.72,0,0,1,4-1.21c.64-.15,1.23-.34,1.29-.8a3.37,3.37,0,0,0-.65-1.86c-.78-1.5-1.61-3-2.48-4.69-3.45-6.7-6-12.22-5.77-12.37s3.3,5.18,6.76,11.87l2.39,4.74a3.65,3.65,0,0,1,.64,2.48,1.67,1.67,0,0,1-.36.65,1.62,1.62,0,0,1-.6.43,4.52,4.52,0,0,1-1.08.28A17.16,17.16,0,0,1,312.44,311.39Z"/><path class="cls-10" d="M318.27,341.05a49,49,0,0,1-25.92-3.67s7.66,12.1,26.43,8.25Z"/><path class="cls-10" d="M312.08,317.59a4.73,4.73,0,0,0-2-1.15,4.63,4.63,0,0,0-2.28-.06,4.09,4.09,0,0,0-1.53.66,4.31,4.31,0,0,0-1.17,1.2,2.7,2.7,0,0,0,.14,3,3.07,3.07,0,0,0,1.64.76,3.17,3.17,0,0,0,1.79-.29,10,10,0,0,0,3-2.31,2.85,2.85,0,0,0,.63-.83.81.81,0,0,0,.09-.48.84.84,0,0,0-.2-.45"/><path class="cls-8" d="M305.26,314c.41,0,.73,2.67,3.31,4.35s5.46,1,5.53,1.41c0,.17-.6.61-1.83.79a7,7,0,0,1-4.59-1,5.94,5.94,0,0,1-2.59-3.67C304.79,314.71,305,314,305.26,314Z"/><path class="cls-8" d="M300.62,283.72c-.17.72-2.73.68-5.65,1.42s-5.24,1.79-5.66,1.21c-.21-.27.14-1,1-1.74a9.75,9.75,0,0,1,4.1-2,10,10,0,0,1,4.56,0C300.08,282.93,300.69,283.39,300.62,283.72Z"/><path class="cls-8" d="M324.15,283.17c-.38.62-2.19.23-4.24.44s-3.82.83-4.24.27c-.22-.27,0-.88.72-1.5a6.17,6.17,0,0,1,3.37-1.34,6.24,6.24,0,0,1,3.54.76C324,282.3,324.31,282.93,324.15,283.17Z"/><path class="cls-8" d="M273,262.4c-3.61,1.18-7.68,11-6.62,14.64a11.24,11.24,0,0,0,8.12,7.21,21.06,21.06,0,0,0,11.21-.72c5.13-1.57,10.55-5.1,10.9-10.45a20.87,20.87,0,0,0,19.63,5.39c6.87-1.77,12-12.28,13.88-19.11Z"/><path class="cls-15" d="M308.57,299.17a20,20,0,0,0-.47-2.5,10.45,10.45,0,0,0-3.79-5.56,10.09,10.09,0,1,0-.07,16.1,10.31,10.31,0,0,0,3.79-5.54c.42-1.58.38-2.5.47-2.5a2.43,2.43,0,0,1,0,.66,8.18,8.18,0,0,1-.23,1.91,10.5,10.5,0,0,1-8.23,7.93,10.75,10.75,0,0,1-5.65-.43,10.46,10.46,0,0,1-5-3.73A10.69,10.69,0,0,1,300,288.66a10.47,10.47,0,0,1,8.23,7.92,7.74,7.74,0,0,1,.23,1.91A2.24,2.24,0,0,1,308.57,299.17Z"/><path class="cls-15" d="M334.58,294.48a18.93,18.93,0,0,0-.46-2.5,10.27,10.27,0,0,0-3.79-5.54,10.09,10.09,0,0,0-4.6-1.92,10.21,10.21,0,0,0-5,.5,9.89,9.89,0,0,0-4.65,3.51,10.08,10.08,0,0,0,4.69,15.39,10.33,10.33,0,0,0,4.16.59,10.21,10.21,0,0,0,9.19-7.53c.42-1.57.38-2.5.47-2.5a2.43,2.43,0,0,1,0,.66,8.25,8.25,0,0,1-.23,1.91,10.5,10.5,0,0,1-8.23,7.93,10.69,10.69,0,0,1-10.63-16.86,10.51,10.51,0,0,1,5-3.72,10.76,10.76,0,0,1,5.65-.44,10.5,10.5,0,0,1,8.23,7.93,8.25,8.25,0,0,1,.23,1.91A2,2,0,0,1,334.58,294.48Z"/><path class="cls-15" d="M307,293.45c-.08,0-.1-.5.24-1.18a3.86,3.86,0,0,1,5.16-1.61c.67.37.94.78.87.84a6.34,6.34,0,0,1-1.08-.36,4.14,4.14,0,0,0-4.51,1.42C307.3,293.08,307.13,293.47,307,293.45Z"/><path class="cls-15" d="M287.43,301.63a13.28,13.28,0,0,1-4,1.72,13,13,0,0,1-4.24,1,25.89,25.89,0,0,1,8.24-2.82Z"/><path class="cls-9" d="M467.54,333.26a3.39,3.39,0,0,0,1.09-.7,3.33,3.33,0,0,0,.73-1.08,3.22,3.22,0,0,0,.24-1.27,3.08,3.08,0,0,0-.27-1.27L458,332.33a43.67,43.67,0,0,0,9.06-4.93c3.07-2.52,1.55-4.69,1.55-4.69L457,327.19l-6.59,3.87L433.93,356.2s12.88,6.28,15.15,4.48c4-3.2,6.2-10.32,7.07-13.94a48,48,0,0,0,8.08-2.82,7.66,7.66,0,0,0,2.42-2.73l-9,1.71c1.3-.38,9.62-3.22,10.27-4.24,1.16-1.79.44-2.58.44-2.58l-11.32,1.75,1.16-.85S464.61,334.39,467.54,333.26Z"/><path class="cls-9" d="M426.05,359.43l-37.91,34.69c-4.7-1.09-62.42-35.56-62.42-35.56l-9.15,44.36s59.07,27.15,75.34,23.85c2.65-.53,7.07-.87,9.75-4.39,13-16.7,40.6-58,40.6-58Z"/><path class="cls-9" d="M451.81,357.69,445,354.4l4.93-9,3.88-8.18,6-11.15-9.15,3.45a7.2,7.2,0,0,0-2.83,2.11l-15.06,20.78-6.61,6.78,6.37,17.34,7.58-11.81,4.43-1C449,362.7,451.81,357.69,451.81,357.69Z"/><path class="cls-9" d="M440.81,343.69a56.66,56.66,0,0,1,9.82-3.84,8.31,8.31,0,0,1,3.39-.44,3.1,3.1,0,0,1,1.57.63,3.07,3.07,0,0,1,1,1.38,3.2,3.2,0,0,1-.26,1.9,3.17,3.17,0,0,1-1.31,1.4,12,12,0,0,1-3.69,1.3,6.38,6.38,0,0,0-3.4,1.8,10.83,10.83,0,0,0-1.42,3.36,11.75,11.75,0,0,1-8.71,7.47"/><path class="cls-10" d="M437.76,358.58s.59-.18,1.64-.59a12.3,12.3,0,0,0,4-2.57,12.05,12.05,0,0,0,2-2.56,15.6,15.6,0,0,0,1.41-3.47,5.51,5.51,0,0,1,1-1.91,4.9,4.9,0,0,1,1.87-1.3c1.41-.62,2.95-.76,4.31-1.33a4.24,4.24,0,0,0,1.74-1.22,2.19,2.19,0,0,0-.24-3.39,2.74,2.74,0,0,0-1.73-.62,10.4,10.4,0,0,0-3.62.62c-1.14.33-2.2.67-3.15,1-1.91.66-3.42,1.28-4.47,1.72a12.16,12.16,0,0,1-1.64.65,7.1,7.1,0,0,1,1.53-.89c1-.51,2.52-1.2,4.41-1.94,1-.36,2-.73,3.15-1.08a10.77,10.77,0,0,1,3.85-.71,4.19,4.19,0,0,1,2.08.75,2.77,2.77,0,0,1,.8.9,2.87,2.87,0,0,1,.36,1.15,4,4,0,0,1-2.83,3.66c-1.51.62-3,.76-4.33,1.31a4.77,4.77,0,0,0-1.64,1.13,5.2,5.2,0,0,0-.92,1.7,16.14,16.14,0,0,1-1.41,3.54,11.31,11.31,0,0,1-2.15,2.62,11.54,11.54,0,0,1-4.17,2.47,9.38,9.38,0,0,1-1.29.33C437.92,358.6,437.76,358.61,437.76,358.58Z"/><path class="cls-8" d="M321.42,483.39H243.65a199.55,199.55,0,0,0-19,29.46l110.73.46C337.61,509.75,321.42,483.39,321.42,483.39Z"/><path class="cls-16" d="M344.4,412.8c-2.63-34.76-11.31-56.6-11.31-56.6l-13.46-4.14c-2,8.88-16.53,11.82-24.78,7.94l-8.72-4.57c-28-4.24-26.57-1.88-33,2C247.43,360.82,248,386,248,386s-13.95,65.7-13.19,76.23,8.88,21.19,8.88,21.19h77.76c7.84,0,10.07-17.67,9.52-24.09S345.26,424.23,344.4,412.8Z"/><path class="cls-8" d="M270.62,434.67a5.79,5.79,0,0,0,1.3,1.11,24.48,24.48,0,0,0,10.65,4.33,23.27,23.27,0,0,0,8.48-.36,28.08,28.08,0,0,0,13.19-7.66,30.74,30.74,0,0,0,3-3.52,5.37,5.37,0,0,0,.9-1.41c-.11-.09-1.52,1.89-4.34,4.55a29.16,29.16,0,0,1-13,7.26,23.71,23.71,0,0,1-14.7-1.41A57.51,57.51,0,0,1,270.62,434.67Z"/><g class="cls-13"><path class="cls-14" d="M306.89,428.92a22.64,22.64,0,0,1-8,15.26,18.79,18.79,0,0,1-16.63,3.62A16.06,16.06,0,0,1,271,435.46a47.82,47.82,0,0,0,12.4,4.33,24.37,24.37,0,0,0,23.94-11.31l-.64.67"/></g><path class="cls-17" d="M218.19,411.19l39.15,18.37s16-35.33,17.34-40.12S280.33,377,276,366.92s-16.25-13.75-22.81-9.47C238.49,367,218.19,411.19,218.19,411.19Z"/><path class="cls-18" d="M341.3,413.05c1.84,0,22.82,11,22.82,11l12-39.56c-17.85-11.9-32.52-25.43-42.94-28.26l5.49,32.7Z"/><path class="cls-8" d="M218.19,411.19a3.63,3.63,0,0,1,.78.28l2.16.92,7.92,3.5,26,11.85,3.16,1.41-.49.18c4.52-9.31,8.48-17.63,11.31-23.64l3.28-7.06c.35-.78.64-1.41.88-1.92a2.14,2.14,0,0,1,.35-.65,3.38,3.38,0,0,1-.23.7c-.15.46-.41,1.12-.74,2-.7,1.71-1.73,4.17-3.07,7.21-2.69,6.06-6.56,14.44-11.07,23.75l-.16.34-.34-.16-3.17-1.41-25.9-12.05-7.8-3.72-2.11-1.06A2.88,2.88,0,0,1,218.19,411.19Z"/><path class="cls-8" d="M337.78,380.57a20.36,20.36,0,0,1,.81,2.43c.52,1.7,1.21,4,2.06,6.68,1.7,5.66,4.24,13.55,4.24,22.61a47.6,47.6,0,0,1-2.09,12.59c-1.09,3.77-2.35,7.07-3.42,9.89s-2,5-2.65,6.47a15.5,15.5,0,0,1-1.06,2.35,3,3,0,0,1,.17-.65c.17-.5.37-1.09.62-1.8.61-1.66,1.42-3.87,2.42-6.55s2.22-6.08,3.27-9.89a49.2,49.2,0,0,0,2-12.41c-.12-9-2.48-16.87-4.06-22.54-.79-2.82-1.42-5.14-1.83-6.73-.21-.81-.35-1.42-.43-1.86A1.94,1.94,0,0,1,337.78,380.57Z"/><path class="cls-8" d="M304.61,372.69a25.84,25.84,0,0,0-7.73-15.18c-2-2-4.47-4.07-4.87-6.91-.51-3.69,2.69-7.06,2.16-10.82-.63-4.61-6.4-6.6-8.48-10.77-2.83-5.65,2.05-12.87-.92-18.37-1.78-3.32-6-5.1-6.9-8.76-.56-2.37,4-5.82,5-11,2.36-11.58,3.56-20.52-7.68-27.26l-6.54-9c-7.35,3.59-13.53,11.66-13.66,20.1-.07,4,2,8,.24,11.58-2.42,5-8.07,8.1-9.79,13.4-2.43,7.57,4.25,16.05,1.42,23.45-1.74,4.37-6.29,6.87-9.16,10.59a16.16,16.16,0,0,0,1,20.26,20.36,20.36,0,0,0-7.68,22.8c1.17,3.44,3.82,6.83,7.44,7.07,5.19.28,8.14-5.65,12-9.13a16.19,16.19,0,0,1,21.84.58c4,4.13,5.66,10.36,10.25,13.73s11.64,2.83,16.15-.84a17.88,17.88,0,0,0,5.91-15.57Z"/><path class="cls-9" d="M253.51,427.06c-7.42,12.18-12.6,19.19-12.6,19.19l66.46,40.46-7.77,18-86.25-35.48s-8.48-8.75-5.5-18.49L221.6,412.8Z"/><path class="cls-10" d="M224.74,452.41c.15.21,3.3-2.43,8-4.13s8.75-1.79,8.73-2.06a21.65,21.65,0,0,0-16.69,6.19Z"/><path class="cls-9" d="M359,499l-16.59-7.93L310,488.52l-2.65-1.82-7.79,18s8.49,4.05,12.94,4.41l27.21-.82L354,509.69Z"/><path class="cls-2" d="M452.31,435.18l-93.32.75c-3,0-5.92,1.41-6.38,4.45l-10.19,67.95H294.34a2.83,2.83,0,0,0,0,5.65H447.87l10.49-71.72a6.1,6.1,0,0,0-.15-2.62,6.11,6.11,0,0,0-5.9-4.46Z"/><path class="cls-8" d="M452.31,435.18a4.79,4.79,0,0,1,1.41.13,6.2,6.2,0,0,1,3.57,2.37,6,6,0,0,1,1.14,3,17,17,0,0,1-.34,3.84c-.39,2.74-.83,5.91-1.34,9.46-2.05,14.25-5,34.78-8.65,60v.24h-.26l-148.91.09h-4a3.76,3.76,0,0,1-2.11-.4,3.08,3.08,0,0,1-1.19-1.16,3.19,3.19,0,0,1,1.19-4.39,3.85,3.85,0,0,1,2.11-.4h47.49l-.35.32c3.66-24.35,7.07-47.06,10.15-67.42a5.26,5.26,0,0,1,1.74-3.54,6.88,6.88,0,0,1,3.56-1.59,29.53,29.53,0,0,1,3.76-.12H365l14.05-.1,25-.16,35.54-.18H449l-9.5.14L404,435.7,379,436l-14.05.14h-3.67a26.36,26.36,0,0,0-3.66.14,6.35,6.35,0,0,0-3.25,1.41,4.64,4.64,0,0,0-1.53,3.18c-3,20.38-6.43,43.08-10.06,67.43v.31H294.94a3.25,3.25,0,0,0-1.74.3A2.41,2.41,0,0,0,292,511a2.39,2.39,0,0,0,.33,1.23,2.36,2.36,0,0,0,.91.89,3.21,3.21,0,0,0,1.75.32h4l148.91.08-.28.25c3.73-25.23,6.79-45.75,8.89-60,.54-3.55,1-6.71,1.42-9.45a19.23,19.23,0,0,0,.38-3.78,6.15,6.15,0,0,0-4.57-5.13A10.89,10.89,0,0,0,452.31,435.18Z"/><path class="cls-7" d="M401.69,479.54a5.84,5.84,0,1,0-5.84-5.84A5.84,5.84,0,0,0,401.69,479.54Z"/><path class="cls-8" d="M346.26,513.25c.14,0,3.12-17.28,6.63-38.65s6.3-38.7,6.17-38.73-3.11,17.29-6.63,38.66S346.08,513.25,346.26,513.25Z"/><path class="cls-19" d="M5,117a5,5,0,0,0-5,5v75a5,5,0,0,0,5,5H299l16,20V202h40a5,5,0,0,0,5-5V122a5,5,0,0,0-5-5Z"/><path class="cls-20" d="M87.28,151.9V166H85.44v-6.52H78.28V166H76.46V151.9h1.82V158h7.16v-6.1Zm2.89-.1a1,1,0,0,1,.34-.8,1.43,1.43,0,0,1,1.8,0,1,1,0,0,1,.34.8,1.06,1.06,0,0,1-.34.82,1.5,1.5,0,0,1-1.8,0A1.06,1.06,0,0,1,90.17,151.8ZM92.31,155v11H90.49V155Zm5.83-3.46-.26,10.3h-1.5l-.26-10.3Zm.12,12.3V166H96v-2.14Zm10.62-12V166h-1.82V151.9Zm14.24,2.94a4.08,4.08,0,0,1,3.1,1.24,4.87,4.87,0,0,1,1.18,3.54V166h-1.82v-6.22a3.52,3.52,0,0,0-.84-2.52,3,3,0,0,0-2.28-.88,3.11,3.11,0,0,0-2.4,1,4,4,0,0,0-.9,2.82V166h-1.82V151.2h1.82v6.42a3.75,3.75,0,0,1,1.48-2.06A4.37,4.37,0,0,1,123.12,154.84Zm11.87,0a4.48,4.48,0,0,1,2.7.8,4.11,4.11,0,0,1,1.56,2.14V155h1.82v11h-1.82v-2.8a4.11,4.11,0,0,1-1.56,2.14,4.48,4.48,0,0,1-2.7.8,5,5,0,0,1-2.6-.68,4.76,4.76,0,0,1-1.8-1.94,7.35,7.35,0,0,1,0-6,4.76,4.76,0,0,1,1.8-2A5,5,0,0,1,135,154.88Zm.52,1.62a3.54,3.54,0,0,0-2.7,1.08,4.15,4.15,0,0,0-1,2.94,4.22,4.22,0,0,0,1,3,3.56,3.56,0,0,0,2.7,1.06,3.71,3.71,0,0,0,1.92-.5,3.41,3.41,0,0,0,1.34-1.4,4.92,4.92,0,0,0,0-4.24,3.3,3.3,0,0,0-1.34-1.4A3.71,3.71,0,0,0,135.51,156.5Zm13,7.56,3.4-9h2l-4.3,11h-2.16l-4.3-11h2Zm17.55-4.16a5.7,5.7,0,0,1-.08,1h-8.78a3.87,3.87,0,0,0,1.06,2.82,3.5,3.5,0,0,0,2.48.94A3.57,3.57,0,0,0,163,164a2.8,2.8,0,0,0,1.1-1.8H166a4.7,4.7,0,0,1-.9,2,4.58,4.58,0,0,1-1.78,1.4,6,6,0,0,1-2.48.5,5.66,5.66,0,0,1-2.8-.68,4.78,4.78,0,0,1-1.92-1.94,7,7,0,0,1,0-6,4.77,4.77,0,0,1,1.92-2,5.66,5.66,0,0,1,2.8-.68,5.53,5.53,0,0,1,2.78.68,4.62,4.62,0,0,1,1.82,1.82A5.13,5.13,0,0,1,166.08,159.9Zm-1.84.12a3.81,3.81,0,0,0-.4-2,3,3,0,0,0-1.26-1.22,3.83,3.83,0,0,0-1.74-.4,3.56,3.56,0,0,0-2.52.94,3.69,3.69,0,0,0-1.1,2.72Zm14.26-5.14a4.5,4.5,0,0,1,2.7.8,4.17,4.17,0,0,1,1.56,2.14V155h1.82v11h-1.82v-2.8a4.17,4.17,0,0,1-1.56,2.14,4.5,4.5,0,0,1-2.7.8,5,5,0,0,1-2.6-.68,4.76,4.76,0,0,1-1.8-1.94,7.35,7.35,0,0,1,0-6,4.76,4.76,0,0,1,1.8-2A5,5,0,0,1,178.5,154.88Zm.52,1.62a3.54,3.54,0,0,0-2.7,1.08,4.11,4.11,0,0,0-1,2.94,4.18,4.18,0,0,0,1,3,3.56,3.56,0,0,0,2.7,1.06,3.71,3.71,0,0,0,1.92-.5,3.48,3.48,0,0,0,1.34-1.4,4.92,4.92,0,0,0,0-4.24,3.36,3.36,0,0,0-1.34-1.4A3.71,3.71,0,0,0,179,156.5Zm20.06-1.62a5,5,0,0,1,2.6.68,4.65,4.65,0,0,1,1.78,2,7.15,7.15,0,0,1,0,6,4.65,4.65,0,0,1-1.78,1.94,5,5,0,0,1-2.6.68,4.56,4.56,0,0,1-2.72-.8,4.16,4.16,0,0,1-1.52-2.14v8H193V155h1.82v2.8a4,4,0,0,1,1.52-2.12A4.44,4.44,0,0,1,199.08,154.88Zm-.52,1.62a3.77,3.77,0,0,0-1.92.5,3.3,3.3,0,0,0-1.34,1.4,4.92,4.92,0,0,0,0,4.24,3.41,3.41,0,0,0,1.34,1.4,3.77,3.77,0,0,0,1.92.5,3.53,3.53,0,0,0,2.7-1.06,4.14,4.14,0,0,0,1-3,4.08,4.08,0,0,0-1-2.94A3.51,3.51,0,0,0,198.56,156.5Zm10.05.74a4,4,0,0,1,1.58-1.76,4.63,4.63,0,0,1,2.48-.64v2h-.56a3.9,3.9,0,0,0-2.52.8,3.15,3.15,0,0,0-1,2.6V166h-1.82V155h1.82Zm11.14-2.36a5.82,5.82,0,0,1,2.82.68,4.81,4.81,0,0,1,2,2,6.61,6.61,0,0,1,0,6,4.82,4.82,0,0,1-2,1.94,5.82,5.82,0,0,1-2.82.68,5.93,5.93,0,0,1-2.84-.68,4.94,4.94,0,0,1-2-1.94,6.61,6.61,0,0,1,0-6,4.93,4.93,0,0,1,2-2A5.93,5.93,0,0,1,219.75,154.88Zm0,1.6a3.91,3.91,0,0,0-1.82.44,3.31,3.31,0,0,0-1.34,1.36,4.61,4.61,0,0,0-.5,2.24,4.66,4.66,0,0,0,.5,2.24,3.32,3.32,0,0,0,1.34,1.34,3.91,3.91,0,0,0,1.82.44,3.8,3.8,0,0,0,1.8-.44,3.26,3.26,0,0,0,1.34-1.34,4.45,4.45,0,0,0,.52-2.24,4.39,4.39,0,0,0-.52-2.24,3.26,3.26,0,0,0-1.34-1.36A3.8,3.8,0,0,0,219.75,156.48Zm14.23-1.6a5,5,0,0,1,2.6.68,4.65,4.65,0,0,1,1.78,2,7.15,7.15,0,0,1,0,6,4.65,4.65,0,0,1-1.78,1.94,5,5,0,0,1-2.6.68,4.58,4.58,0,0,1-2.72-.8,4.22,4.22,0,0,1-1.52-2.14V166h-1.82V151.2h1.82v6.62a4.09,4.09,0,0,1,1.52-2.12A4.46,4.46,0,0,1,234,154.88Zm-.52,1.62a3.77,3.77,0,0,0-1.92.5,3.36,3.36,0,0,0-1.34,1.4,4.92,4.92,0,0,0,0,4.24,3.48,3.48,0,0,0,1.34,1.4,3.77,3.77,0,0,0,1.92.5,3.53,3.53,0,0,0,2.7-1.06,4.14,4.14,0,0,0,1-3,4.08,4.08,0,0,0-1-2.94A3.51,3.51,0,0,0,233.46,156.5Zm10.06-5.3V166H241.7V151.2Zm13.32,8.7a4.87,4.87,0,0,1-.08,1H248a3.91,3.91,0,0,0,1.06,2.82,3.85,3.85,0,0,0,4.68.28,2.77,2.77,0,0,0,1.1-1.8h1.94a4.64,4.64,0,0,1-2.68,3.44,6,6,0,0,1-2.48.5,5.72,5.72,0,0,1-2.8-.68,4.91,4.91,0,0,1-1.92-1.94,7,7,0,0,1,0-6,4.9,4.9,0,0,1,1.92-2,5.72,5.72,0,0,1,2.8-.68,5.48,5.48,0,0,1,2.78.68,4.55,4.55,0,0,1,1.82,1.82A5,5,0,0,1,256.84,159.9ZM255,160a3.72,3.72,0,0,0-.4-2,2.85,2.85,0,0,0-1.26-1.22,3.77,3.77,0,0,0-1.74-.4,3.56,3.56,0,0,0-2.52.94A3.73,3.73,0,0,0,248,160Zm18-5.18a4,4,0,0,1,3.08,1.24,4.87,4.87,0,0,1,1.18,3.54V166h-1.82v-6.22a3.48,3.48,0,0,0-.8-2.48,2.78,2.78,0,0,0-2.16-.86,3,3,0,0,0-2.32,1,4,4,0,0,0-.86,2.78V166H267.5v-6.22a3.48,3.48,0,0,0-.8-2.48,2.81,2.81,0,0,0-2.16-.86,3,3,0,0,0-2.34,1,4,4,0,0,0-.86,2.78V166h-1.82V155h1.82v2.5a3.53,3.53,0,0,1,1.42-2,4.16,4.16,0,0,1,2.38-.7,4.07,4.07,0,0,1,2.42.72,3.76,3.76,0,0,1,1.48,2.08,4,4,0,0,1,1.54-2.06A4.26,4.26,0,0,1,273,154.84Zm10-3.28-.26,10.3h-1.5l-.26-10.3Zm.12,12.3V166h-2.22v-2.14Z"/><path class="cls-19" d="M646,189a5,5,0,0,0-5,5v75a5,5,0,0,0,5,5h37v20l16-20H996a5,5,0,0,0,5-5V194a5,5,0,0,0-5-5Z"/><path class="cls-20" d="M696.34,230.94a7.82,7.82,0,0,1-.86,3.74,6,6,0,0,1-2.54,2.46,8.65,8.65,0,0,1-4,.86h-4.48V223.9h4.48a8.65,8.65,0,0,1,4,.86,5.66,5.66,0,0,1,2.54,2.44A7.74,7.74,0,0,1,696.34,230.94Zm-7.54,5.42a5.79,5.79,0,0,0,4.22-1.42,6.21,6.21,0,0,0,0-8,5.72,5.72,0,0,0-4.22-1.44h-2.52v10.86Zm15.28-9.48a5.82,5.82,0,0,1,2.82.68,4.81,4.81,0,0,1,2,2,6.61,6.61,0,0,1,0,6,4.82,4.82,0,0,1-2,1.94,5.82,5.82,0,0,1-2.82.68,5.9,5.9,0,0,1-2.84-.68,4.94,4.94,0,0,1-2-1.94,6.61,6.61,0,0,1,0-6,4.93,4.93,0,0,1,2-2A5.9,5.9,0,0,1,704.08,226.88Zm0,1.6a3.88,3.88,0,0,0-1.82.44,3.31,3.31,0,0,0-1.34,1.36,4.5,4.5,0,0,0-.5,2.24,4.55,4.55,0,0,0,.5,2.24,3.32,3.32,0,0,0,1.34,1.34,3.88,3.88,0,0,0,1.82.44,3.8,3.8,0,0,0,1.8-.44,3.26,3.26,0,0,0,1.34-1.34,4.55,4.55,0,0,0,.52-2.24,4.5,4.5,0,0,0-.52-2.24,3.26,3.26,0,0,0-1.34-1.36A3.8,3.8,0,0,0,704.08,228.48ZM718,226.84a4.08,4.08,0,0,1,3.1,1.24,4.91,4.91,0,0,1,1.18,3.54V238h-1.82v-6.22a3.52,3.52,0,0,0-.84-2.52,3,3,0,0,0-2.28-.88,3.11,3.11,0,0,0-2.4,1,4,4,0,0,0-.9,2.82V238h-1.82V227h1.82v2.6a3.75,3.75,0,0,1,1.48-2.06A4.35,4.35,0,0,1,718,226.84Zm8.51-4.6a8,8,0,0,1,.22,1.84,2.45,2.45,0,0,1-.52,1.7,1.91,1.91,0,0,1-1.5.56v-.82a.93.93,0,0,0,.74-.26,1.34,1.34,0,0,0,.22-.84V224h-1v-1.72Zm8,14.16V238h-1.36a3.54,3.54,0,0,1-2.52-.8,3.67,3.67,0,0,1-.82-2.68V228.6h-1.64V227h1.64v-2.74h1.84V227h2.84v1.58h-2.84v6A2.15,2.15,0,0,0,732,236a2,2,0,0,0,1.36.38ZM757.34,227l-3.16,11h-2l-3-8.94-3,8.94h-2l-3.12-11h1.84l2.34,9.24,3-9.24h1.9l3.06,9.22L755.6,227Zm7-.14a5.77,5.77,0,0,1,2.82.68,4.75,4.75,0,0,1,2,2,6.61,6.61,0,0,1,0,6,4.76,4.76,0,0,1-2,1.94,5.77,5.77,0,0,1-2.82.68,5.93,5.93,0,0,1-2.84-.68,5,5,0,0,1-2-1.94,6.61,6.61,0,0,1,0-6,5,5,0,0,1,2-2A5.93,5.93,0,0,1,764.31,226.88Zm0,1.6a3.91,3.91,0,0,0-1.82.44,3.44,3.44,0,0,0-1.34,1.36,4.61,4.61,0,0,0-.5,2.24,4.66,4.66,0,0,0,.5,2.24,3.45,3.45,0,0,0,1.34,1.34,3.91,3.91,0,0,0,1.82.44,3.75,3.75,0,0,0,1.8-.44,3.21,3.21,0,0,0,1.34-1.34,4.45,4.45,0,0,0,.52-2.24,4.39,4.39,0,0,0-.52-2.24,3.2,3.2,0,0,0-1.34-1.36A3.75,3.75,0,0,0,764.31,228.48Zm10,.76a3.94,3.94,0,0,1,1.59-1.76,4.59,4.59,0,0,1,2.47-.64v2h-.56a3.9,3.9,0,0,0-2.52.8,3.15,3.15,0,0,0-1,2.6V238h-1.82V227h1.82Zm8,0a4,4,0,0,1,1.58-1.76,4.6,4.6,0,0,1,2.48-.64v2h-.56a3.86,3.86,0,0,0-2.52.8,3.15,3.15,0,0,0-1,2.6V238h-1.82V227h1.82ZM789.2,227l3.56,8.64,3.3-8.64h2l-6.52,16.18H789.5l2.28-5.38L787.16,227Zm11.9,9.64a5.36,5.36,0,0,1,.29,1.64,2.49,2.49,0,0,1-.53,1.66,1.86,1.86,0,0,1-1.56.64v-.78a.87.87,0,0,0,.73-.28,1.26,1.26,0,0,0,.24-.84v-.18h-1v-1.86ZM824.16,227,821,238h-2l-3-8.94L813,238h-2l-3.12-11h1.84l2.34,9.24,3-9.24H817l3.06,9.22,2.36-9.22Zm12.1,4.88a5.7,5.7,0,0,1-.08,1H827.4a3.87,3.87,0,0,0,1.06,2.82,3.52,3.52,0,0,0,2.48.94,3.57,3.57,0,0,0,2.2-.66,2.77,2.77,0,0,0,1.1-1.8h1.94a4.64,4.64,0,0,1-2.68,3.44,6,6,0,0,1-2.48.5,5.69,5.69,0,0,1-2.8-.68,4.91,4.91,0,0,1-1.92-1.94,7,7,0,0,1,0-6,4.9,4.9,0,0,1,1.92-2,5.69,5.69,0,0,1,2.8-.68,5.51,5.51,0,0,1,2.78.68,4.55,4.55,0,0,1,1.82,1.82A5,5,0,0,1,836.26,231.9Zm-1.84.12a3.72,3.72,0,0,0-.4-2,3,3,0,0,0-1.26-1.22,3.77,3.77,0,0,0-1.74-.4,3.56,3.56,0,0,0-2.52.94,3.69,3.69,0,0,0-1.1,2.72Zm24.84-5-3.16,11h-2l-3-8.94-3,8.94h-2L843,227h1.84l2.34,9.24,3-9.24h1.9l3.06,9.22,2.36-9.22Zm1.68-3.22a1,1,0,0,1,.34-.8,1.43,1.43,0,0,1,1.8,0,1,1,0,0,1,.34.8,1.06,1.06,0,0,1-.34.82,1.5,1.5,0,0,1-1.8,0A1.06,1.06,0,0,1,860.94,223.8Zm2.14,3.22v11h-1.82V227Zm5-3.82V238H866.3V223.2Zm5,0V238h-1.82V223.2Zm11.91,3.68a4.39,4.39,0,0,1,3,1,4,4,0,0,1,1.38,2.6H887.7a2.45,2.45,0,0,0-.82-1.6,2.56,2.56,0,0,0-1.84-.64,2.29,2.29,0,0,0-1.54.48A1.58,1.58,0,0,0,883,230a1.36,1.36,0,0,0,.36,1,2.58,2.58,0,0,0,.92.56c.37.12.88.25,1.52.4a13.72,13.72,0,0,1,2,.58,2.93,2.93,0,0,1,1.28.92,2.59,2.59,0,0,1,.54,1.72,2.7,2.7,0,0,1-1,2.18,4,4,0,0,1-2.68.84,5.13,5.13,0,0,1-3.2-.94,3.76,3.76,0,0,1-1.46-2.62h1.76a2.29,2.29,0,0,0,.86,1.62,3.2,3.2,0,0,0,2,.62,2.07,2.07,0,0,0,1.46-.48,1.61,1.61,0,0,0,.54-1.26,1.38,1.38,0,0,0-.38-1,2.49,2.49,0,0,0-.94-.58,15.37,15.37,0,0,0-1.54-.42,15.57,15.57,0,0,1-2-.56,3.17,3.17,0,0,1-1.24-.88,2.59,2.59,0,0,1-.5-1.66,2.73,2.73,0,0,1,1-2.22A4.2,4.2,0,0,1,885.08,226.88Zm12.17,0a5.82,5.82,0,0,1,2.82.68,4.81,4.81,0,0,1,2,2,6.61,6.61,0,0,1,0,6,4.82,4.82,0,0,1-2,1.94,5.82,5.82,0,0,1-2.82.68,5.93,5.93,0,0,1-2.84-.68,4.94,4.94,0,0,1-2-1.94,6.61,6.61,0,0,1,0-6,4.93,4.93,0,0,1,2-2A5.93,5.93,0,0,1,897.25,226.88Zm0,1.6a3.91,3.91,0,0,0-1.82.44,3.38,3.38,0,0,0-1.34,1.36,4.61,4.61,0,0,0-.5,2.24,4.66,4.66,0,0,0,.5,2.24,3.38,3.38,0,0,0,1.34,1.34,3.91,3.91,0,0,0,1.82.44,3.8,3.8,0,0,0,1.8-.44,3.21,3.21,0,0,0,1.34-1.34,4.45,4.45,0,0,0,.52-2.24,4.39,4.39,0,0,0-.52-2.24,3.2,3.2,0,0,0-1.34-1.36A3.8,3.8,0,0,0,897.25,228.48Zm10-5.28V238h-1.82V223.2Zm7.49,12.86,3.4-9h2l-4.3,11h-2.16l-4.3-11h2Zm17.55-4.16a5.7,5.7,0,0,1-.08,1h-8.79a4,4,0,0,0,1.06,2.82,3.87,3.87,0,0,0,4.69.28,2.8,2.8,0,0,0,1.1-1.8h1.94a4.61,4.61,0,0,1-.91,2,4.48,4.48,0,0,1-1.77,1.4,6,6,0,0,1-2.49.5,5.72,5.72,0,0,1-2.8-.68,4.82,4.82,0,0,1-1.91-1.94,7,7,0,0,1,0-6,4.81,4.81,0,0,1,1.91-2,5.72,5.72,0,0,1,2.8-.68,5.54,5.54,0,0,1,2.79.68,4.68,4.68,0,0,1,1.82,1.82A5.13,5.13,0,0,1,932.28,231.9Zm-1.85.12a3.72,3.72,0,0,0-.4-2,2.88,2.88,0,0,0-1.25-1.22,3.84,3.84,0,0,0-1.75-.4,3.54,3.54,0,0,0-2.51.94,3.74,3.74,0,0,0-1.11,2.72Zm9.45-8.22a1,1,0,0,1,.34-.8,1.25,1.25,0,0,1,.9-.32,1.29,1.29,0,0,1,.9.32,1,1,0,0,1,.34.8,1.1,1.1,0,0,1-.34.82,1.32,1.32,0,0,1-.9.3,1.29,1.29,0,0,1-.9-.3A1.06,1.06,0,0,1,939.88,223.8ZM942,227v11H940.2V227Zm8.46,9.38V238h-1.36a3.54,3.54,0,0,1-2.52-.8,3.67,3.67,0,0,1-.82-2.68V228.6h-1.64V227h1.64v-2.74h1.84V227h2.84v1.58h-2.84v6A2.15,2.15,0,0,0,948,236a2,2,0,0,0,1.36.38Zm5.12-12.84-.26,10.3h-1.5l-.26-10.3Zm.12,12.3V238H953.5v-2.14Z"/><path class="cls-4" d="M402.2,199.08l-7-1.75-.4-1.63a23,23,0,0,0,7.45-2.33.92.92,0,0,0,.09-1.51S399,189.13,399,179.75c0-7.91-1.85-11.92-5.5-11.92H393c-1.32-1.27-2.31-1.83-5-1.83-3.45,0-11,3.46-11,13.75,0,9.38-3.28,12.08-3.3,12.1a.93.93,0,0,0-.37.78,1,1,0,0,0,.45.74,23.1,23.1,0,0,0,7.45,2.34l-.4,1.62-7,1.75a10.29,10.29,0,0,0-7.8,10,.92.92,0,0,0,.92.92h42.16a.92.92,0,0,0,.92-.92A10.29,10.29,0,0,0,402.2,199.08Z"/><rect class="cls-21" x="349" y="22" width="302.08" height="61"/><image width="1550" height="313" transform="translate(326.13 7.88) scale(0.24)" xlink:href="../mygrapari.png"/></svg>